ply
format ascii 1.0
comment Created in Blender version 4.2.1 LTS
element vertex 22
property float x
property float y
property float z
property float s
property float t
element face 6
property list uchar uint vertex_indices
end_header
-0.5 0.5 0.5 0 0
0.5 0.5 0.5 1 0
0.5 0.5 -0.5 1 1
-0.5 0.5 -0.5 0 1
-0.5 -0.5 -0.5 1 0
-0.5 0.5 -0.5 1 1
0.5 0.5 -0.5 0 1
0.5 -0.5 -0.5 0 0
0.5 -0.5 -0.5 1 0
0.5 0.5 -0.5 1 1
0.5 0.5 0.5 0 1
0.5 -0.5 0.5 0 0
-0.5 -0.5 0.5 1 0
-0.5 -0.5 -0.5 1 1
0.5 -0.5 -0.5 0 1
-0.5 -0.5 0.5 1 0
-0.5 0.5 0.5 1 1
-0.5 -0.5 -0.5 0 0
0.5 -0.5 0.5 1 0
0.5 0.5 0.5 1 1
-0.5 0.5 0.5 0 1
-0.5 -0.5 0.5 0 0
4 0 1 2 3
4 4 5 6 7
4 8 9 10 11
4 11 12 13 14
4 15 16 3 17
4 18 19 20 21
