ply
format ascii 1.0
comment Created in Blender version 4.2.1 LTS
element vertex 14
property float x
property float y
property float z
property float s
property float t
element face 6
property list uchar uint vertex_indices
end_header
0.5 0.5 0.5 0.49845877 0.6672094
0.5 0.5 -0.5 0.49819055 1.0004897
-0.5 0.5 -0.5 0.2508459 1.0012481
-0.5 0.5 0.5 0.2511142 0.6679676
-0.5 -0.5 0.5 0.25138235 0.3346873
-0.5 0.5 -0.5 0.003769353 0.66872597
-0.5 -0.5 -0.5 0.0040376633 0.33544567
-0.5 -0.5 -0.5 0.9934164 0.33241242
-0.5 0.5 -0.5 0.99314797 0.66569275
0.5 0.5 -0.5 0.7458034 0.6664511
0.5 -0.5 -0.5 0.7460718 0.33317074
0.5 -0.5 -0.5 0.4989952 0.00064873695
0.5 -0.5 0.5 0.498727 0.333929
-0.5 -0.5 -0.5 0.2516505 0.0014070272
4 0 1 2 3
4 4 3 5 6
4 7 8 9 10
4 11 12 4 13
4 12 0 3 4
4 10 9 0 12
