ply
format ascii 1.0
comment Created in Blender version 4.2.1 LTS
element vertex 28
property float x
property float y
property float z
property float s
property float t
element face 12
property list uchar uint vertex_indices
end_header
-0.00041073165 32 -4 0.625 0.5
-0.0004113356 32 4 0.875 0.5
7.9995885 32 4.0000005 0.875 0.75
7.9995894 32 -3.9999993 0.625 0.75
16 0 -3.9999988 0.375 0.75
7.9995885 32 4.0000005 0.625 1
16 0 4.0000014 0.375 1
16 0 4.0000014 0.375 0
7.9995885 32 4.0000005 0.625 0
-0.0004113356 32 4 0.625 0.25
7.9999995 0 4.0000005 0.375 0.25
7.9999995 0 4.0000005 0.125 0.5
8 0 -3.9999993 0.375 0.5
16 0 4.0000014 0.125 0.75
0.00041108133 32 4 0.625 0.5
0.00041098593 32 -4 0.875 0.5
-7.999589 32 -4 0.875 0.75
-7.999589 32 4 0.625 0.75
-16 0 4 0.375 0.75
-7.999589 32 -4 0.625 1
-16 0 -3.9999998 0.375 1
-16 0 -3.9999998 0.375 0
-7.999589 32 -4 0.625 0
0.00041098593 32 -4 0.625 0.25
-8 0 -4 0.375 0.25
-8 0 -4 0.125 0.5
-8 0 4 0.375 0.5
-16 0 -3.9999998 0.125 0.75
4 0 1 2 3
4 4 3 5 6
4 7 8 9 10
4 11 12 4 13
4 12 0 3 4
4 10 9 0 12
4 14 15 16 17
4 18 17 19 20
4 21 22 23 24
4 25 26 18 27
4 26 14 17 18
4 24 23 14 26
