ply
format ascii 1.0
comment Created in Blender version 4.2.1 LTS
element vertex 559
property float x
property float y
property float z
property float s
property float t
element face 512
property list uchar uint vertex_indices
end_header
0 0.8314696 -0.55557024 0.75 0.31250006
5.9604645e-08 0.923879 -0.38268346 0.75 0.37499994
0.18023995 0.9061274 -0.38268346 0.71875 0.375
0.16221167 0.8154931 -0.55557024 0.71875 0.31249994
8.940697e-08 0.7071066 0.70710677 0.75 0.75000006
0 0.55557024 0.8314696 0.75 0.8125
0.10838638 0.5448951 0.8314696 0.71875 0.8125
0.13794969 0.6935199 0.70710677 0.71875 0.75
8.940697e-08 0.7071066 -0.70710677 0.75 0.25
0.13794969 0.6935199 -0.70710677 0.71875 0.25
0 0.8314696 0.55557024 0.75 0.6875
0.16221167 0.8154931 0.55557024 0.71875 0.6875
2.1606684e-07 0.5555695 -0.8314696 0.74999994 0.18749982
0.10838638 0.5448951 -0.8314696 0.71875 0.1875
5.9604645e-08 0.923879 0.38268346 0.75 0.6250001
0.18023995 0.9061274 0.38268346 0.71875 0.625
6.7055225e-08 0.38268322 -0.9238795 0.74999994 0.125
0.07465784 0.3753303 -0.9238795 0.71875 0.12500006
0 0.98078525 0.19509032 0.75 0.5625
0.19134171 0.9619397 0.19509032 0.71875 0.5625
1.4901161e-08 0.1950901 -0.98078525 0.75 0.06249988
0.038060233 0.19134171 -0.98078525 0.71875 0.06249994
0 1 0 0.75 0.5
0.19509032 0.98078525 0 0.71875 0.5
1.4901161e-08 0.1950901 0.98078525 0.75 0.9375001
0 0 1 0.734375 1
0.038060233 0.19134171 0.98078525 0.71875 0.93750006
0 0 -1 0.734375 0
0 0.98078525 -0.19509032 0.75 0.4375
0.19134171 0.9619397 -0.19509032 0.71875 0.4375
6.7055225e-08 0.38268322 0.9238795 0.74999994 0.87500006
0.07465784 0.3753303 0.9238795 0.71875 0.875
0.07465783 0.18023995 0.98078525 0.6875 0.93750006
0.14644662 0.3535534 0.9238795 0.6875 0.875
0.37533027 0.9061274 -0.19509032 0.6875 0.4375
0.35355335 0.85355335 -0.38268346 0.6875 0.375
0.21260753 0.5132799 0.8314696 0.6875 0.8125
0.31818962 0.7681776 -0.55557024 0.6875 0.31249994
0.27059805 0.65328145 0.70710677 0.6875 0.75
0.27059805 0.65328145 -0.70710677 0.6875 0.25
0.31818962 0.7681776 0.55557024 0.6875 0.6875
0.21260753 0.5132799 -0.8314696 0.6875 0.1875
0.35355335 0.85355335 0.38268346 0.6875 0.625
0.14644662 0.3535534 -0.9238795 0.6875 0.12500006
0.37533027 0.9061274 0.19509032 0.6875 0.5625
0.07465783 0.18023995 -0.98078525 0.6875 0.06249994
0.38268343 0.92387944 0 0.6875 0.5
0 0 1 0.703125 1
0 0 -1 0.703125 0
0.4619397 0.6913416 0.55557024 0.65625 0.6875
0.5132799 0.7681777 0.38268346 0.65625 0.625
0.30865827 0.4619397 -0.8314696 0.65625 0.1875
0.21260753 0.31818965 -0.9238795 0.65625 0.12500006
0.5448951 0.8154931 0.19509032 0.65625 0.5625
0.10838637 0.16221166 -0.98078525 0.65625 0.06249994
0.55557024 0.8314695 0 0.65625 0.5
0 0 1 0.671875 1
0.10838637 0.16221166 0.98078525 0.65625 0.93750006
0 0 -1 0.671875 0
0.5448951 0.8154931 -0.19509032 0.65625 0.4375
0.21260753 0.31818965 0.9238795 0.65625 0.875
0.5132799 0.7681777 -0.38268346 0.65625 0.375
0.30865827 0.4619397 0.8314696 0.65625 0.8125
0.4619397 0.6913416 -0.55557024 0.65625 0.31249994
0.39284748 0.5879378 0.70710677 0.65625 0.75
0.39284748 0.5879378 -0.70710677 0.65625 0.25
0.6935199 0.69351983 -0.19509032 0.625 0.4375
0.6532814 0.65328145 -0.38268346 0.625 0.375
0.27059805 0.27059802 0.9238795 0.625 0.875
0.39284745 0.3928474 0.8314696 0.625 0.8125
0.5879377 0.58793765 -0.55557024 0.625 0.31249994
0.5 0.5 0.70710677 0.625 0.75
0.5 0.5 -0.70710677 0.625 0.25
0.5879377 0.58793765 0.55557024 0.625 0.68750006
0.39284745 0.3928474 -0.8314696 0.625 0.1875
0.6532814 0.65328145 0.38268346 0.625 0.625
0.27059805 0.27059802 -0.9238795 0.625 0.125
0.6935199 0.69351983 0.19509032 0.625 0.5625
0.13794968 0.13794966 -0.98078525 0.625 0.06249994
0.70710677 0.7071066 0 0.625 0.5
0 0 1 0.640625 1
0.13794968 0.13794966 0.98078525 0.625 0.93750006
0 0 -1 0.640625 0
0.46193972 0.3086582 -0.8314696 0.59375 0.1875
0.31818965 0.2126075 -0.9238795 0.59375 0.125
0.7681776 0.51328 0.38268346 0.59375 0.625
0.8154931 0.544895 0.19509032 0.59375 0.5625
0.16221166 0.10838635 -0.98078525 0.59375 0.06249994
0.83146954 0.55557 0 0.59375 0.5
0 0 1 0.609375 1
0.16221166 0.10838635 0.98078525 0.59375 0.93750006
0 0 -1 0.609375 0
0.8154931 0.544895 -0.19509032 0.59375 0.4375
0.31818965 0.2126075 0.9238795 0.59375 0.875
0.7681776 0.51328 -0.38268346 0.59375 0.375
0.46193972 0.3086582 0.8314696 0.59375 0.8125
0.69134164 0.46193963 -0.55557024 0.59375 0.31249994
0.5879378 0.39284748 0.70710677 0.59375 0.75
0.5879378 0.39284748 -0.70710677 0.59375 0.25
0.69134164 0.46193963 0.55557024 0.59375 0.6875
0.8535533 0.3535534 -0.38268346 0.5625 0.375
0.7681776 0.3181895 -0.55557024 0.5625 0.31249994
0.5132799 0.21260746 0.8314696 0.5625 0.8125
0.65328145 0.27059805 0.70710677 0.5625 0.75
0.65328145 0.27059805 -0.70710677 0.5625 0.25
0.7681776 0.3181895 0.55557024 0.5625 0.6875
0.5132799 0.21260746 -0.8314696 0.5625 0.1875
0.8535533 0.3535534 0.38268346 0.5625 0.625
0.35355335 0.14644659 -0.9238795 0.5625 0.125
0.90612733 0.37533015 0.19509032 0.5625 0.5625
0.18023992 0.07465781 -0.98078525 0.5625 0.06249994
0.9238794 0.38268322 0 0.5625 0.5
0 0 1 0.578125 1
0.18023992 0.07465781 0.98078525 0.5625 0.93750006
0 0 -1 0.578125 0
0.90612733 0.37533015 -0.19509032 0.5625 0.4375
0.35355335 0.14644659 0.9238795 0.5625 0.875
0.37533024 0.07465781 -0.9238795 0.53125 0.125
0.19134167 0.038060214 -0.98078525 0.53125 0.06249994
0.96193963 0.19134161 0.19509032 0.53125 0.5625
0.9807851 0.19509013 0 0.53125 0.5
0 0 1 0.546875 1
0.19134167 0.038060214 0.98078525 0.53125 0.93750006
0 0 -1 0.546875 0
0.96193963 0.19134161 -0.19509032 0.53125 0.4375
0.37533024 0.07465781 0.9238795 0.53125 0.875
0.90612733 0.18023999 -0.38268346 0.53125 0.375
0.54489505 0.108386315 0.8314696 0.53125 0.8125
0.815493 0.16221157 -0.55557024 0.53125 0.31249994
0.6935199 0.1379497 0.70710677 0.53125 0.75
0.6935199 0.1379497 -0.70710677 0.53125 0.25
0.815493 0.16221157 0.55557024 0.53125 0.68750006
0.54489505 0.108386315 -0.8314696 0.53125 0.1875
0.90612733 0.18023999 0.38268346 0.53125 0.62500006
0.5555701 -5.2154064e-08 0.8314696 0.49999997 0.8125
0.7071067 1.4901161e-08 0.70710677 0.5 0.75
0.8314694 -8.940697e-08 -0.55557024 0.49999997 0.31249994
0.7071067 1.4901161e-08 -0.70710677 0.5 0.25
0.8314694 -8.940697e-08 0.55557024 0.49999997 0.68750006
0.5555701 -5.2154064e-08 -0.8314696 0.49999997 0.1875
0.92387944 4.4703484e-08 0.38268346 0.5 0.625
0.3826834 -2.2351742e-08 -0.9238795 0.5 0.125
0.98078513 -8.940697e-08 0.19509032 0.5 0.5625
0.19509026 -1.1175871e-08 -0.98078525 0.5 0.06249994
0.9999997 -1.6391277e-07 0 0.49999997 0.5
0 0 1 0.515625 1
0.19509026 -1.1175871e-08 0.98078525 0.5 0.93750006
0 0 -1 0.515625 0
0.98078513 -8.940697e-08 -0.19509032 0.5 0.4375
0.3826834 -2.2351742e-08 0.9238795 0.5 0.875
0.92387944 4.4703484e-08 -0.38268346 0.5 0.375
0.9619396 -0.19134177 0.19509032 0.46875 0.5625
0.9807849 -0.19509043 0 0.46874997 0.5
0 0 1 0.484375 1
0.19134165 -0.038060233 0.98078525 0.46875 0.93750006
0 0 -1 0.484375 0
0.19134165 -0.038060233 -0.98078525 0.46875 0.06249994
0.9619396 -0.19134177 -0.19509032 0.46875 0.4375
0.37533024 -0.07465785 0.9238795 0.46875 0.875
0.90612733 -0.1802399 -0.38268346 0.46875 0.375
0.544895 -0.108386405 0.8314696 0.46875 0.8125
0.8154929 -0.16221173 -0.55557024 0.46875 0.31249994
0.69351983 -0.13794966 0.70710677 0.46875 0.75
0.69351983 -0.13794966 -0.70710677 0.46875 0.25
0.8154929 -0.16221173 0.55557024 0.46875 0.68750006
0.544895 -0.108386405 -0.8314696 0.46875 0.1875
0.90612733 -0.1802399 0.38268346 0.46875 0.62500006
0.37533024 -0.07465785 -0.9238795 0.46875 0.125
0.7681775 -0.31818965 -0.55557024 0.43749997 0.31249994
0.6532814 -0.270598 -0.70710677 0.4375 0.25
0.6532814 -0.270598 0.70710677 0.4375 0.75
0.7681775 -0.31818965 0.55557024 0.43749997 0.68750006
0.5132798 -0.21260753 -0.8314696 0.43749997 0.1875
0.8535533 -0.3535533 0.38268346 0.4375 0.62500006
0.35355335 -0.14644662 -0.9238795 0.4375 0.125
0.9061272 -0.3753303 0.19509032 0.4375 0.5625
0.18023989 -0.07465782 -0.98078525 0.4375 0.06249994
0.9238791 -0.38268346 0 0.43749997 0.5
0 0 1 0.453125 1
0.18023989 -0.07465782 0.98078525 0.4375 0.93750006
0 0 -1 0.453125 0
0.9061272 -0.3753303 -0.19509032 0.4375 0.4375
0.35355335 -0.14644662 0.9238795 0.4375 0.875
0.8535533 -0.3535533 -0.38268346 0.4375 0.375
0.5132798 -0.21260753 0.8314696 0.43749997 0.81250006
0 0 1 0.421875 1
0.1622116 -0.10838634 0.98078525 0.40625 0.93750006
0 0 -1 0.421875 0
0.1622116 -0.10838634 -0.98078525 0.40625 0.06249994
0.8314691 -0.5555702 0 0.40624997 0.5
0.8154929 -0.54489505 -0.19509032 0.40625 0.4375
0.3181896 -0.21260752 0.9238795 0.40625 0.875
0.7681776 -0.51327986 -0.38268346 0.40625 0.375
0.46193957 -0.30865824 0.8314696 0.40625 0.81250006
0.69134146 -0.4619397 -0.55557024 0.40625 0.31249994
0.5879377 -0.39284742 0.70710677 0.40625 0.75
0.5879377 -0.39284742 -0.70710677 0.40625 0.25
0.69134146 -0.4619397 0.55557024 0.40625 0.68750006
0.46193957 -0.30865824 -0.8314696 0.40625 0.1875
0.7681776 -0.51327986 0.38268346 0.40625 0.62500006
0.3181896 -0.21260752 -0.9238795 0.40625 0.125
0.8154929 -0.54489505 0.19509032 0.40625 0.5625
0.49999994 -0.49999994 0.70710677 0.375 0.75
0.58793753 -0.58793765 0.55557024 0.375 0.68750006
0.49999994 -0.49999994 -0.70710677 0.375 0.25
0.39284727 -0.39284742 -0.8314696 0.37499997 0.1875
0.6532814 -0.65328133 0.38268346 0.375 0.62500006
0.27059796 -0.27059802 -0.9238795 0.375 0.125
0.6935197 -0.69351983 0.19509032 0.375 0.5625
0.13794962 -0.13794963 -0.98078525 0.375 0.06249994
0.70710623 -0.70710665 0 0.37499994 0.5
0 0 1 0.390625 1
0.13794962 -0.13794963 0.98078525 0.375 0.93750006
0 0 -1 0.390625 0
0.6935197 -0.69351983 -0.19509032 0.375 0.4375
0.27059796 -0.27059802 0.9238795 0.375 0.875
0.6532814 -0.65328133 -0.38268346 0.375 0.375
0.39284727 -0.39284742 0.8314696 0.37499997 0.81250006
0.58793753 -0.58793765 -0.55557024 0.375 0.31249994
0.5555697 -0.83146936 0 0.34374994 0.5
0.5448949 -0.815493 -0.19509032 0.34375 0.4375
0.108386315 -0.1622116 0.98078525 0.34375 0.93750006
0.21260744 -0.31818962 0.9238795 0.34375 0.875
0.5132799 -0.76817757 -0.38268346 0.34375 0.375
0.3086581 -0.46193966 0.8314696 0.34375 0.81250006
0.46193954 -0.6913415 -0.55557024 0.34375 0.31249994
0.39284742 -0.5879377 0.70710677 0.34375 0.75
0.39284742 -0.5879377 -0.70710677 0.34375 0.25
0.46193954 -0.6913415 0.55557024 0.34375 0.68750006
0.3086581 -0.46193966 -0.8314696 0.34375 0.1875
0.5132799 -0.76817757 0.38268346 0.34375 0.62500006
0.21260744 -0.31818962 -0.9238795 0.34375 0.125
0.5448949 -0.815493 0.19509032 0.34375 0.5625
0.108386315 -0.1622116 -0.98078525 0.34375 0.06249994
0 0 1 0.359375 1
0 0 -1 0.359375 0
0.270598 -0.6532814 -0.70710677 0.3125 0.25
0.21260735 -0.5132798 -0.8314696 0.3125 0.1875
0.31818944 -0.7681775 0.55557024 0.3125 0.68750006
0.35355335 -0.8535532 0.38268346 0.3125 0.62500006
0.14644653 -0.35355332 -0.9238795 0.3125 0.125
0.37533003 -0.9061272 0.19509032 0.3125 0.5625
0.07465778 -0.18023986 -0.98078525 0.3125 0.06249994
0.38268295 -0.92387915 0 0.31249997 0.5
0 0 1 0.328125 1
0.07465778 -0.18023986 0.98078525 0.3125 0.93750006
0 0 -1 0.328125 0
0.37533003 -0.9061272 -0.19509032 0.3125 0.4375
0.14644653 -0.35355332 0.9238795 0.3125 0.875
0.35355335 -0.8535532 -0.38268346 0.3125 0.375
0.21260735 -0.5132798 0.8314696 0.3125 0.81250006
0.31818944 -0.7681775 -0.55557024 0.3125 0.31249994
0.270598 -0.6532814 0.70710677 0.3125 0.75
0.19134152 -0.96193945 -0.19509032 0.28125 0.4375
0.18023995 -0.9061272 -0.38268346 0.28125 0.375
0.07465776 -0.37533018 0.9238795 0.28125 0.875
0.10838623 -0.5448949 0.8314696 0.28124997 0.81250006
0.16221152 -0.81549287 -0.55557024 0.28125 0.31249994
0.13794966 -0.69351983 0.70710677 0.28125 0.75
0.13794966 -0.69351983 -0.70710677 0.28125 0.25
0.16221152 -0.81549287 0.55557024 0.28125 0.68750006
0.10838623 -0.5448949 -0.8314696 0.28124997 0.1875
0.18023995 -0.9061272 0.38268346 0.28125 0.62500006
0.07465776 -0.37533018 -0.9238795 0.28125 0.125
0.19134152 -0.96193945 0.19509032 0.28125 0.5625
0.038060203 -0.1913416 -0.98078525 0.28125 0.06249994
0.1950899 -0.9807848 0 0.28124994 0.5
0 0 1 0.296875 1
0.038060203 -0.1913416 0.98078525 0.28125 0.93750006
0 0 -1 0.296875 0
-9.685755e-08 -0.55556995 -0.8314696 0.24999997 0.1875
-5.2154064e-08 -0.38268334 -0.9238795 0.24999997 0.125
2.9802322e-08 -0.92387927 0.38268346 0.25 0.62500006
-1.3411045e-07 -0.98078495 0.19509032 0.24999997 0.5625
-7.450581e-09 -0.19509019 -0.98078525 0.25 0.06249994
-3.2782555e-07 -0.99999934 0 0.24999997 0.5
0 0 1 0.265625 1
-7.450581e-09 -0.19509019 0.98078525 0.25 0.93750006
0 0 -1 0.265625 0
-1.3411045e-07 -0.98078495 -0.19509032 0.24999997 0.4375
-5.2154064e-08 -0.38268334 0.9238795 0.24999997 0.875
2.9802322e-08 -0.92387927 -0.38268346 0.25 0.375
-9.685755e-08 -0.55556995 0.8314696 0.24999997 0.81250006
-1.0430813e-07 -0.8314693 -0.55557024 0.25 0.31249994
-1.4901161e-08 -0.70710665 0.70710677 0.25 0.75
-1.4901161e-08 -0.70710665 -0.70710677 0.25 0.25
-1.0430813e-07 -0.8314693 0.55557024 0.25 0.68750006
-0.074657865 -0.37533018 0.9238795 0.21875 0.875
-0.10838642 -0.5448948 0.8314696 0.21875 0.81250006
-0.18023987 -0.90612715 -0.38268346 0.21875003 0.375
-0.16221172 -0.8154928 -0.55557024 0.21875 0.31249994
-0.13794968 -0.6935198 0.70710677 0.21875 0.75
-0.13794968 -0.6935198 -0.70710677 0.21875 0.25
-0.16221172 -0.8154928 0.55557024 0.21875 0.68750006
-0.10838642 -0.5448948 -0.8314696 0.21875 0.1875
-0.18023987 -0.90612715 0.38268346 0.21875003 0.62500006
-0.074657865 -0.37533018 -0.9238795 0.21875 0.125
-0.19134179 -0.9619394 0.19509032 0.21875 0.5625
-0.038060214 -0.19134158 -0.98078525 0.21875 0.06249994
-0.19509052 -0.98078454 0 0.21874994 0.5
0 0 1 0.234375 1
-0.038060214 -0.19134158 0.98078525 0.21875 0.93750006
0 0 -1 0.234375 0
-0.19134179 -0.9619394 -0.19509032 0.21875 0.4375
-0.35355324 -0.8535531 0.38268346 0.1875 0.62500006
-0.37533027 -0.90612704 0.19509032 0.1875 0.5625
-0.14644662 -0.3535533 -0.9238795 0.1875 0.125
-0.07465778 -0.18023983 -0.98078525 0.1875 0.06249994
-0.3826835 -0.9238787 0 0.18749997 0.5
0 0 1 0.203125 1
-0.07465778 -0.18023983 0.98078525 0.1875 0.93750006
0 0 -1 0.203125 0
-0.37533027 -0.90612704 -0.19509032 0.1875 0.4375
-0.14644662 -0.3535533 0.9238795 0.1875 0.875
-0.35355324 -0.8535531 -0.38268346 0.1875 0.375
-0.2126075 -0.5132796 0.8314696 0.18749997 0.81250006
-0.31818962 -0.7681774 -0.55557024 0.1875 0.31249994
-0.270598 -0.65328133 0.70710677 0.1875 0.75
-0.270598 -0.65328133 -0.70710677 0.1875 0.25
-0.31818962 -0.7681774 0.55557024 0.1875 0.68750006
-0.2126075 -0.5132796 -0.8314696 0.18749997 0.1875
-0.51327974 -0.7681775 -0.38268346 0.15625003 0.375
-0.46193963 -0.69134134 -0.55557024 0.15624997 0.31249994
-0.30865818 -0.4619394 0.8314696 0.15624997 0.8125001
-0.39284742 -0.58793765 0.70710677 0.15625003 0.75
-0.39284742 -0.58793765 -0.70710677 0.15625003 0.25
-0.46193963 -0.69134134 0.55557024 0.15624997 0.68750006
-0.30865818 -0.4619394 -0.8314696 0.15624997 0.18749994
-0.51327974 -0.7681775 0.38268346 0.15625003 0.62500006
-0.2126075 -0.31818953 -0.9238795 0.15624997 0.125
-0.54489505 -0.81549275 0.19509032 0.15624997 0.5625
-0.1083863 -0.16221155 -0.98078525 0.15625003 0.06249994
-0.5555701 -0.83146876 0 0.15624994 0.5
0 0 1 0.171875 1
-0.1083863 -0.16221155 0.98078525 0.15625003 0.93750006
0 0 -1 0.171875 0
-0.54489505 -0.81549275 -0.19509032 0.15624997 0.4375
-0.2126075 -0.31818953 0.9238795 0.15624997 0.875
-0.270598 -0.27059793 -0.9238795 0.125 0.125
-0.13794959 -0.13794957 -0.98078525 0.125 0.06249994
-0.6935198 -0.69351953 0.19509032 0.12499997 0.5625
-0.7071065 -0.70710593 0 0.12499994 0.5
0 0 1 0.14062497 1
-0.13794959 -0.13794957 0.98078525 0.125 0.93750006
0 0 -1 0.14062497 0
-0.6935198 -0.69351953 -0.19509032 0.12499997 0.4375
-0.270598 -0.27059793 0.9238795 0.125 0.875
-0.6532812 -0.6532813 -0.38268346 0.125 0.375
-0.3928473 -0.39284712 0.8314696 0.12499997 0.8125001
-0.5879376 -0.5879374 -0.55557024 0.12499997 0.31249994
-0.4999999 -0.49999988 0.70710677 0.125 0.75
-0.4999999 -0.49999988 -0.70710677 0.125 0.25
-0.5879376 -0.5879374 0.55557024 0.12499997 0.68750006
-0.3928473 -0.39284712 -0.8314696 0.12499997 0.18749994
-0.6532812 -0.6532813 0.38268346 0.125 0.62500006
-0.4619395 -0.30865794 0.8314696 0.09374997 0.8125001
-0.58793765 -0.39284736 0.70710677 0.09375 0.75000006
-0.69134146 -0.46193942 -0.55557024 0.09375 0.31249994
-0.58793765 -0.39284736 -0.70710677 0.09375 0.25
-0.69134146 -0.46193942 0.55557024 0.09375 0.68750006
-0.4619395 -0.30865794 -0.8314696 0.09374997 0.18749994
-0.76817745 -0.5132798 0.38268346 0.09375 0.6250001
-0.31818956 -0.21260741 -0.9238795 0.09375 0.125
-0.8154929 -0.5448947 0.19509032 0.09374997 0.5625
-0.16221155 -0.10838628 -0.98078525 0.09375 0.06249994
-0.8314691 -0.5555694 0 0.09374991 0.5
0 0 1 0.109375 1
-0.16221155 -0.10838628 0.98078525 0.09375 0.93750006
0 0 -1 0.109375 0
-0.8154929 -0.5448947 -0.19509032 0.09374997 0.4375
-0.31818956 -0.21260741 0.9238795 0.09375 0.875
-0.76817745 -0.5132798 -0.38268346 0.09375 0.37499994
-0.90612715 -0.37532988 0.19509032 0.0625 0.5625
-0.92387885 -0.38268268 0 0.06249994 0.5
0 0 1 0.078125 1
-0.18023981 -0.07465775 0.98078525 0.0625 0.93750006
0 0 -1 0.078125 0
-0.18023981 -0.07465775 -0.98078525 0.0625 0.06249994
-0.90612715 -0.37532988 -0.19509032 0.0625 0.4375
-0.35355327 -0.14644651 0.9238795 0.0625 0.875
-0.85355306 -0.35355327 -0.38268346 0.06250003 0.37499994
-0.5132796 -0.21260723 0.8314696 0.0625 0.8125001
-0.7681774 -0.31818932 -0.55557024 0.0625 0.31249988
-0.65328133 -0.27059796 0.70710677 0.06250003 0.75
-0.65328133 -0.27059796 -0.70710677 0.06250003 0.25
-0.7681774 -0.31818932 0.55557024 0.0625 0.6875001
-0.5132796 -0.21260723 -0.8314696 0.0625 0.18749994
-0.85355306 -0.35355327 0.38268346 0.06250003 0.6250001
-0.35355327 -0.14644651 -0.9238795 0.0625 0.125
-0.81549275 -0.16221143 -0.55557024 0.03124997 0.31249994
-0.6935198 -0.13794963 -0.70710677 0.03125 0.25
-0.6935198 -0.13794963 0.70710677 0.03125 0.75
-0.81549275 -0.16221143 0.55557024 0.03124997 0.68750006
-0.5448947 -0.10838615 -0.8314696 0.03124997 0.18749994
-0.9061271 -0.18023989 0.38268346 0.03125 0.62500006
-0.37533012 -0.07465775 -0.9238795 0.03124997 0.125
-0.9619394 -0.19134139 0.19509032 0.03124997 0.5625
-0.19134155 -0.03806018 -0.98078525 0.03125 0.06249994
-0.9807844 -0.1950897 0 0.03124994 0.5
0 0 1 0.04687503 1
-0.19134155 -0.03806018 0.98078525 0.03125 0.93750006
0 0 -1 0.04687503 0
-0.9619394 -0.19134139 -0.19509032 0.03124997 0.4375
-0.37533012 -0.07465775 0.9238795 0.03124997 0.87500006
-0.9061271 -0.18023989 -0.38268346 0.03125 0.375
-0.5448947 -0.10838615 0.8314696 0.03124997 0.8125001
0 0 -1 0.015625 0
-0.19509014 1.8626451e-08 -0.98078525 0 0.06249994
-0.99999905 4.4703484e-07 0 0 0.5
-0.98078483 2.682209e-07 -0.19509032 0 0.4375
-0.19509014 1.8626451e-08 0.98078525 0 0.93750006
-0.38268325 5.2154064e-08 0.9238795 0 0.87500006
-0.92387915 1.4901161e-08 -0.38268346 0 0.37499994
-0.55556977 1.4901161e-07 0.8314696 0 0.8125001
-0.8314692 1.6391277e-07 -0.55557024 0 0.31249994
-0.7071066 2.9802322e-08 0.70710677 0 0.75000006
-0.7071066 2.9802322e-08 -0.70710677 0 0.25
-0.8314692 1.6391277e-07 0.55557024 0 0.68750006
-0.55556977 1.4901161e-07 -0.8314696 0 0.18749994
-0.92387915 1.4901161e-08 0.38268346 0 0.6250001
-0.38268325 5.2154064e-08 -0.9238795 0 0.125
-0.98078483 2.682209e-07 0.19509032 0 0.5625
0 0 1 0.015625 1
-0.55556977 1.4901161e-07 -0.8314696 1 0.18749994
-0.7071066 2.9802322e-08 -0.70710677 1 0.25
-0.6935197 0.13794969 -0.70710677 0.96875 0.25
-0.54489464 0.108386435 -0.8314696 0.96874994 0.18749994
-0.92387915 1.4901161e-08 0.38268346 1 0.6250001
-0.8314692 1.6391277e-07 0.55557024 1 0.68750006
-0.81549263 0.16221176 0.55557024 0.96874994 0.6875001
-0.90612704 0.1802399 0.38268346 0.96875 0.6250001
-0.38268325 5.2154064e-08 -0.9238795 1 0.125
-0.3753301 0.07465785 -0.9238795 0.96874994 0.125
-0.98078483 2.682209e-07 0.19509032 1 0.5625
-0.9619392 0.19134189 0.19509032 0.96874994 0.56250006
-0.19509014 1.8626451e-08 -0.98078525 1 0.06249994
-0.19134153 0.038060218 -0.98078525 0.96875 0.06249994
-0.99999905 4.4703484e-07 0 1 0.5
-0.98078424 0.19509058 0 0.9687499 0.5
-0.19509014 1.8626451e-08 0.98078525 1 0.93750006
0 0 1 0.984375 1
-0.19134153 0.038060218 0.98078525 0.96875 0.93750006
0 0 -1 0.984375 0
-0.98078483 2.682209e-07 -0.19509032 1 0.4375
-0.9619392 0.19134189 -0.19509032 0.96874994 0.4375
-0.38268325 5.2154064e-08 0.9238795 1 0.87500006
-0.3753301 0.07465785 0.9238795 0.96874994 0.87500006
-0.92387915 1.4901161e-08 -0.38268346 1 0.37499994
-0.90612704 0.1802399 -0.38268346 0.96875 0.37499994
-0.55556977 1.4901161e-07 0.8314696 1 0.8125001
-0.54489464 0.108386435 0.8314696 0.96874994 0.8125001
-0.8314692 1.6391277e-07 -0.55557024 1 0.31249994
-0.81549263 0.16221176 -0.55557024 0.96874994 0.31249988
-0.7071066 2.9802322e-08 0.70710677 1 0.75000006
-0.6935197 0.13794969 0.70710677 0.96875 0.75000006
-0.18023978 0.07465778 0.98078525 0.9375 0.93750006
-0.3535532 0.14644659 0.9238795 0.9375 0.87500006
-0.90612686 0.37533033 -0.19509032 0.93749994 0.4375
-0.853553 0.35355324 -0.38268346 0.9375 0.37499994
-0.51327944 0.21260749 0.8314696 0.93749994 0.8125001
-0.7681772 0.31818962 -0.55557024 0.93749994 0.31249988
-0.6532813 0.270598 0.70710677 0.9375 0.75000006
-0.6532813 0.270598 -0.70710677 0.9375 0.25
-0.7681772 0.31818962 0.55557024 0.93749994 0.6875001
-0.51327944 0.21260749 -0.8314696 0.93749994 0.18749994
-0.853553 0.35355324 0.38268346 0.9375 0.6250001
-0.3535532 0.14644659 -0.9238795 0.9375 0.125
-0.90612686 0.37533033 0.19509032 0.93749994 0.56250006
-0.18023978 0.07465778 -0.98078525 0.9375 0.06249994
-0.92387843 0.3826835 0 0.9374999 0.5
0 0 1 0.953125 1
0 0 -1 0.953125 0
-0.69134116 0.46193963 0.55557024 0.90625 0.6875001
-0.7681774 0.51327974 0.38268346 0.90625 0.6250001
-0.46193922 0.30865815 -0.8314696 0.90624994 0.18749994
-0.31818944 0.21260746 -0.9238795 0.90625 0.125
-0.8154926 0.54489505 0.19509032 0.90625 0.56250006
-0.16221151 0.10838629 -0.98078525 0.90625 0.06249994
-0.83146846 0.55557007 0 0.90624994 0.5
0 0 1 0.921875 1
-0.16221151 0.10838629 0.98078525 0.90625 0.93750006
0 0 -1 0.921875 0
-0.8154926 0.54489505 -0.19509032 0.90625 0.4375
-0.31818944 0.21260746 0.9238795 0.90625 0.87500006
-0.7681774 0.51327974 -0.38268346 0.90625 0.37499994
-0.46193922 0.30865815 0.8314696 0.90624994 0.8125001
-0.69134116 0.46193963 -0.55557024 0.90625 0.31249988
-0.5879376 0.3928474 0.70710677 0.90625 0.75000006
-0.5879376 0.3928474 -0.70710677 0.90625 0.25
-0.69351935 0.6935197 -0.19509032 0.87499994 0.4375
-0.65328115 0.65328115 -0.38268346 0.875 0.37499994
-0.27059788 0.27059793 0.9238795 0.875 0.87500006
-0.39284694 0.39284724 0.8314696 0.8749999 0.8125001
-0.58793724 0.58793753 -0.55557024 0.87499994 0.31249988
-0.49999982 0.49999988 0.70710677 0.875 0.75000006
-0.49999982 0.49999988 -0.70710677 0.875 0.25
-0.58793724 0.58793753 0.55557024 0.87499994 0.6875001
-0.39284694 0.39284724 -0.8314696 0.8749999 0.18749994
-0.65328115 0.65328115 0.38268346 0.875 0.6250001
-0.27059788 0.27059793 -0.9238795 0.875 0.125
-0.69351935 0.6935197 0.19509032 0.87499994 0.56250006
-0.13794954 0.13794957 -0.98078525 0.875 0.06249994
-0.7071057 0.70710635 0 0.8749999 0.5
0 0 1 0.890625 1
-0.13794954 0.13794957 0.98078525 0.875 0.93750006
0 0 -1 0.890625 0
-0.3086578 0.46193942 -0.8314696 0.84374994 0.18749982
-0.21260737 0.3181895 -0.9238795 0.84375 0.125
-0.5132797 0.7681774 0.38268346 0.84375 0.6250001
-0.5448946 0.8154928 0.19509032 0.84374994 0.56250006
-0.10838625 0.16221152 -0.98078525 0.84375 0.06249994
-0.55556923 0.83146894 0 0.8437499 0.5
0 0 1 0.859375 1
-0.10838625 0.16221152 0.98078525 0.84375 0.93750006
0 0 -1 0.859375 0
-0.5448946 0.8154928 -0.19509032 0.84374994 0.4375
-0.21260737 0.3181895 0.9238795 0.84375 0.87500006
-0.5132797 0.7681774 -0.38268346 0.84375 0.37499994
-0.3086578 0.46193942 0.8314696 0.84374994 0.8125002
-0.46193928 0.69134134 -0.55557024 0.84374994 0.31249988
-0.3928473 0.58793765 0.70710677 0.84375 0.75000006
-0.3928473 0.58793765 -0.70710677 0.84375 0.25
-0.46193928 0.69134134 0.55557024 0.84374994 0.6875001
-0.14644648 0.35355324 0.9238795 0.8125 0.87500006
-0.2126071 0.5132795 0.8314696 0.81249994 0.8125002
-0.35355318 0.853553 -0.38268346 0.8125 0.37499994
-0.3181892 0.7681773 -0.55557024 0.81249994 0.31249988
-0.2705979 0.65328133 0.70710677 0.8125 0.75000006
-0.2705979 0.65328133 -0.70710677 0.8125 0.25
-0.3181892 0.7681773 0.55557024 0.81249994 0.6875001
-0.2126071 0.5132795 -0.8314696 0.81249994 0.18749982
-0.35355318 0.853553 0.38268346 0.8125 0.6250001
-0.14644648 0.35355324 -0.9238795 0.8125 0.125
-0.3753298 0.906127 0.19509032 0.81249994 0.56250006
-0.07465774 0.18023977 -0.98078525 0.8125 0.06249988
-0.38268256 0.9238786 0 0.8124999 0.5
0 0 1 0.828125 1
-0.07465774 0.18023977 0.98078525 0.8125 0.9375001
0 0 -1 0.828125 0
-0.3753298 0.906127 -0.19509032 0.81249994 0.4375
-0.18023981 0.906127 0.38268346 0.78125 0.6250001
-0.19134133 0.9619392 0.19509032 0.78124994 0.56250006
-0.07465773 0.3753301 -0.9238795 0.78124994 0.125
-0.038060177 0.1913415 -0.98078525 0.78125 0.06249988
-0.19508962 0.9807842 0 0.7812499 0.5
0 0 1 0.796875 1
-0.038060177 0.1913415 0.98078525 0.78125 0.9375001
0 0 -1 0.796875 0
-0.19134133 0.9619392 -0.19509032 0.78124994 0.4375
-0.07465773 0.3753301 0.9238795 0.78124994 0.87500006
-0.18023981 0.906127 -0.38268346 0.78125 0.37499994
-0.10838604 0.5448945 0.8314696 0.78124994 0.8125002
-0.16221133 0.8154926 -0.55557024 0.78124994 0.31249988
-0.13794957 0.6935198 0.70710677 0.78125 0.75
-0.13794957 0.6935198 -0.70710677 0.78125 0.25
-0.16221133 0.8154926 0.55557024 0.78124994 0.6875001
-0.10838604 0.5448945 -0.8314696 0.78124994 0.18749982
0 0 1 0.765625 1
0 0 -1 0.765625 0
4 0 1 2 3
4 4 5 6 7
4 8 0 3 9
4 10 4 7 11
4 12 8 9 13
4 14 10 11 15
4 16 12 13 17
4 18 14 15 19
4 20 16 17 21
4 22 18 19 23
3 24 25 26
3 27 20 21
4 28 22 23 29
4 30 24 26 31
4 1 28 29 2
4 5 30 31 6
4 31 26 32 33
4 2 29 34 35
4 6 31 33 36
4 3 2 35 37
4 7 6 36 38
4 9 3 37 39
4 11 7 38 40
4 13 9 39 41
4 15 11 40 42
4 17 13 41 43
4 19 15 42 44
4 21 17 43 45
4 23 19 44 46
3 26 47 32
3 48 21 45
4 29 23 46 34
4 42 40 49 50
4 43 41 51 52
4 44 42 50 53
4 45 43 52 54
4 46 44 53 55
3 32 56 57
3 58 45 54
4 34 46 55 59
4 33 32 57 60
4 35 34 59 61
4 36 33 60 62
4 37 35 61 63
4 38 36 62 64
4 39 37 63 65
4 40 38 64 49
4 41 39 65 51
4 61 59 66 67
4 62 60 68 69
4 63 61 67 70
4 64 62 69 71
4 65 63 70 72
4 49 64 71 73
4 51 65 72 74
4 50 49 73 75
4 52 51 74 76
4 53 50 75 77
4 54 52 76 78
4 55 53 77 79
3 57 80 81
3 82 54 78
4 59 55 79 66
4 60 57 81 68
4 76 74 83 84
4 77 75 85 86
4 78 76 84 87
4 79 77 86 88
3 81 89 90
3 91 78 87
4 66 79 88 92
4 68 81 90 93
4 67 66 92 94
4 69 68 93 95
4 70 67 94 96
4 71 69 95 97
4 72 70 96 98
4 73 71 97 99
4 74 72 98 83
4 75 73 99 85
4 96 94 100 101
4 97 95 102 103
4 98 96 101 104
4 99 97 103 105
4 83 98 104 106
4 85 99 105 107
4 84 83 106 108
4 86 85 107 109
4 87 84 108 110
4 88 86 109 111
3 90 112 113
3 114 87 110
4 92 88 111 115
4 93 90 113 116
4 94 92 115 100
4 95 93 116 102
4 110 108 117 118
4 111 109 119 120
3 113 121 122
3 123 110 118
4 115 111 120 124
4 116 113 122 125
4 100 115 124 126
4 102 116 125 127
4 101 100 126 128
4 103 102 127 129
4 104 101 128 130
4 105 103 129 131
4 106 104 130 132
4 107 105 131 133
4 108 106 132 117
4 109 107 133 119
4 129 127 134 135
4 130 128 136 137
4 131 129 135 138
4 132 130 137 139
4 133 131 138 140
4 117 132 139 141
4 119 133 140 142
4 118 117 141 143
4 120 119 142 144
3 122 145 146
3 147 118 143
4 124 120 144 148
4 125 122 146 149
4 126 124 148 150
4 127 125 149 134
4 128 126 150 136
4 144 142 151 152
3 146 153 154
3 155 143 156
4 148 144 152 157
4 149 146 154 158
4 150 148 157 159
4 134 149 158 160
4 136 150 159 161
4 135 134 160 162
4 137 136 161 163
4 138 135 162 164
4 139 137 163 165
4 140 138 164 166
4 141 139 165 167
4 142 140 166 151
4 143 141 167 156
4 163 161 168 169
4 164 162 170 171
4 165 163 169 172
4 166 164 171 173
4 167 165 172 174
4 151 166 173 175
4 156 167 174 176
4 152 151 175 177
3 154 178 179
3 180 156 176
4 157 152 177 181
4 158 154 179 182
4 159 157 181 183
4 160 158 182 184
4 161 159 183 168
4 162 160 184 170
3 179 185 186
3 187 176 188
4 181 177 189 190
4 182 179 186 191
4 183 181 190 192
4 184 182 191 193
4 168 183 192 194
4 170 184 193 195
4 169 168 194 196
4 171 170 195 197
4 172 169 196 198
4 173 171 197 199
4 174 172 198 200
4 175 173 199 201
4 176 174 200 188
4 177 175 201 189
4 197 195 202 203
4 198 196 204 205
4 199 197 203 206
4 200 198 205 207
4 201 199 206 208
4 188 200 207 209
4 189 201 208 210
3 186 211 212
3 213 188 209
4 190 189 210 214
4 191 186 212 215
4 192 190 214 216
4 193 191 215 217
4 194 192 216 218
4 195 193 217 202
4 196 194 218 204
4 214 210 219 220
4 215 212 221 222
4 216 214 220 223
4 217 215 222 224
4 218 216 223 225
4 202 217 224 226
4 204 218 225 227
4 203 202 226 228
4 205 204 227 229
4 206 203 228 230
4 207 205 229 231
4 208 206 230 232
4 209 207 231 233
4 210 208 232 219
3 212 234 221
3 235 209 233
4 229 227 236 237
4 230 228 238 239
4 231 229 237 240
4 232 230 239 241
4 233 231 240 242
4 219 232 241 243
3 221 244 245
3 246 233 242
4 220 219 243 247
4 222 221 245 248
4 223 220 247 249
4 224 222 248 250
4 225 223 249 251
4 226 224 250 252
4 227 225 251 236
4 228 226 252 238
4 249 247 253 254
4 250 248 255 256
4 251 249 254 257
4 252 250 256 258
4 236 251 257 259
4 238 252 258 260
4 237 236 259 261
4 239 238 260 262
4 240 237 261 263
4 241 239 262 264
4 242 240 263 265
4 243 241 264 266
3 245 267 268
3 269 242 265
4 247 243 266 253
4 248 245 268 255
4 263 261 270 271
4 264 262 272 273
4 265 263 271 274
4 266 264 273 275
3 268 276 277
3 278 265 274
4 253 266 275 279
4 255 268 277 280
4 254 253 279 281
4 256 255 280 282
4 257 254 281 283
4 258 256 282 284
4 259 257 283 285
4 260 258 284 286
4 261 259 285 270
4 262 260 286 272
4 282 280 287 288
4 283 281 289 290
4 284 282 288 291
4 285 283 290 292
4 286 284 291 293
4 270 285 292 294
4 272 286 293 295
4 271 270 294 296
4 273 272 295 297
4 274 271 296 298
4 275 273 297 299
3 277 300 301
3 302 274 298
4 279 275 299 303
4 280 277 301 287
4 281 279 303 289
4 297 295 304 305
4 298 296 306 307
4 299 297 305 308
3 301 309 310
3 311 298 307
4 303 299 308 312
4 287 301 310 313
4 289 303 312 314
4 288 287 313 315
4 290 289 314 316
4 291 288 315 317
4 292 290 316 318
4 293 291 317 319
4 294 292 318 320
4 295 293 319 304
4 296 294 320 306
4 316 314 321 322
4 317 315 323 324
4 318 316 322 325
4 319 317 324 326
4 320 318 325 327
4 304 319 326 328
4 306 320 327 329
4 305 304 328 330
4 307 306 329 331
4 308 305 330 332
3 310 333 334
3 335 307 331
4 312 308 332 336
4 313 310 334 337
4 314 312 336 321
4 315 313 337 323
4 331 329 338 339
4 332 330 340 341
3 334 342 343
3 344 331 339
4 336 332 341 345
4 337 334 343 346
4 321 336 345 347
4 323 337 346 348
4 322 321 347 349
4 324 323 348 350
4 325 322 349 351
4 326 324 350 352
4 327 325 351 353
4 328 326 352 354
4 329 327 353 338
4 330 328 354 340
4 350 348 355 356
4 351 349 357 358
4 352 350 356 359
4 353 351 358 360
4 354 352 359 361
4 338 353 360 362
4 340 354 361 363
4 339 338 362 364
4 341 340 363 365
3 343 366 367
3 368 339 364
4 345 341 365 369
4 346 343 367 370
4 347 345 369 371
4 348 346 370 355
4 349 347 371 357
4 365 363 372 373
3 367 374 375
3 376 364 377
4 369 365 373 378
4 370 367 375 379
4 371 369 378 380
4 355 370 379 381
4 357 371 380 382
4 356 355 381 383
4 358 357 382 384
4 359 356 383 385
4 360 358 384 386
4 361 359 385 387
4 362 360 386 388
4 363 361 387 372
4 364 362 388 377
4 384 382 389 390
4 385 383 391 392
4 386 384 390 393
4 387 385 392 394
4 388 386 393 395
4 372 387 394 396
4 377 388 395 397
4 373 372 396 398
3 375 399 400
3 401 377 397
4 378 373 398 402
4 379 375 400 403
4 380 378 402 404
4 381 379 403 405
4 382 380 404 389
4 383 381 405 391
3 406 397 407
4 402 398 408 409
4 403 400 410 411
4 404 402 409 412
4 405 403 411 413
4 389 404 412 414
4 391 405 413 415
4 390 389 414 416
4 392 391 415 417
4 393 390 416 418
4 394 392 417 419
4 395 393 418 420
4 396 394 419 421
4 397 395 420 407
4 398 396 421 408
3 400 422 410
4 423 424 425 426
4 427 428 429 430
4 431 423 426 432
4 433 427 430 434
4 435 431 432 436
4 437 433 434 438
3 439 440 441
3 442 435 436
4 443 437 438 444
4 445 439 441 446
4 447 443 444 448
4 449 445 446 450
4 451 447 448 452
4 453 449 450 454
4 424 451 452 425
4 428 453 454 429
4 446 441 455 456
4 448 444 457 458
4 450 446 456 459
4 452 448 458 460
4 454 450 459 461
4 425 452 460 462
4 429 454 461 463
4 426 425 462 464
4 430 429 463 465
4 432 426 464 466
4 434 430 465 467
4 436 432 466 468
4 438 434 467 469
3 441 470 455
3 471 436 468
4 444 438 469 457
4 465 463 472 473
4 466 464 474 475
4 467 465 473 476
4 468 466 475 477
4 469 467 476 478
3 455 479 480
3 481 468 477
4 457 469 478 482
4 456 455 480 483
4 458 457 482 484
4 459 456 483 485
4 460 458 484 486
4 461 459 485 487
4 462 460 486 488
4 463 461 487 472
4 464 462 488 474
4 484 482 489 490
4 485 483 491 492
4 486 484 490 493
4 487 485 492 494
4 488 486 493 495
4 472 487 494 496
4 474 488 495 497
4 473 472 496 498
4 475 474 497 499
4 476 473 498 500
4 477 475 499 501
4 478 476 500 502
3 480 503 504
3 505 477 501
4 482 478 502 489
4 483 480 504 491
4 499 497 506 507
4 500 498 508 509
4 501 499 507 510
4 502 500 509 511
3 504 512 513
3 514 501 510
4 489 502 511 515
4 491 504 513 516
4 490 489 515 517
4 492 491 516 518
4 493 490 517 519
4 494 492 518 520
4 495 493 519 521
4 496 494 520 522
4 497 495 521 506
4 498 496 522 508
4 518 516 523 524
4 519 517 525 526
4 520 518 524 527
4 521 519 526 528
4 522 520 527 529
4 506 521 528 530
4 508 522 529 531
4 507 506 530 532
4 509 508 531 533
4 510 507 532 534
4 511 509 533 535
3 513 536 537
3 538 510 534
4 515 511 535 539
4 516 513 537 523
4 517 515 539 525
4 533 531 540 541
4 534 532 542 543
4 535 533 541 544
3 537 545 546
3 547 534 543
4 539 535 544 548
4 523 537 546 549
4 525 539 548 550
4 524 523 549 551
4 526 525 550 552
4 527 524 551 553
4 528 526 552 554
4 529 527 553 555
4 530 528 554 556
4 531 529 555 540
4 532 530 556 542
4 552 550 1 0
4 553 551 5 4
4 554 552 0 8
4 555 553 4 10
4 556 554 8 12
4 540 555 10 14
4 542 556 12 16
4 541 540 14 18
4 543 542 16 20
4 544 541 18 22
3 546 557 24
3 558 543 20
4 548 544 22 28
4 549 546 24 30
4 550 548 28 1
4 551 549 30 5
