ply
format ascii 1.0
comment Created in Blender version 4.2.1 LTS
element vertex 559
property float x
property float y
property float z
property float s
property float t
element face 960
property list uchar uint vertex_indices
end_header
0 0.8314696 -0.55557024 0.75 0.31250006
0.18023995 0.9061274 -0.38268346 0.71875 0.375
0.16221167 0.8154931 -0.55557024 0.71875 0.31249994
8.940697e-08 0.7071066 0.70710677 0.75 0.75000006
0.10838638 0.5448951 0.8314696 0.71875 0.8125
0.13794969 0.6935199 0.70710677 0.71875 0.75
8.940697e-08 0.7071066 -0.70710677 0.75 0.25
0.13794969 0.6935199 -0.70710677 0.71875 0.25
0 0.8314696 0.55557024 0.75 0.6875
0.16221167 0.8154931 0.55557024 0.71875 0.6875
2.1606684e-07 0.5555695 -0.8314696 0.74999994 0.18749982
0.10838638 0.5448951 -0.8314696 0.71875 0.1875
5.9604645e-08 0.923879 0.38268346 0.75 0.6250001
0.18023995 0.9061274 0.38268346 0.71875 0.625
6.7055225e-08 0.38268322 -0.9238795 0.74999994 0.125
0.07465784 0.3753303 -0.9238795 0.71875 0.12500006
0 0.98078525 0.19509032 0.75 0.5625
0.19134171 0.9619397 0.19509032 0.71875 0.5625
1.4901161e-08 0.1950901 -0.98078525 0.75 0.06249988
0.038060233 0.19134171 -0.98078525 0.71875 0.06249994
0 1 0 0.75 0.5
0.19509032 0.98078525 0 0.71875 0.5
1.4901161e-08 0.1950901 0.98078525 0.75 0.9375001
0 0 1 0.734375 1
0.038060233 0.19134171 0.98078525 0.71875 0.93750006
0 0 -1 0.734375 0
0 0.98078525 -0.19509032 0.75 0.4375
0.19134171 0.9619397 -0.19509032 0.71875 0.4375
6.7055225e-08 0.38268322 0.9238795 0.74999994 0.87500006
0.07465784 0.3753303 0.9238795 0.71875 0.875
5.9604645e-08 0.923879 -0.38268346 0.75 0.37499994
0 0.55557024 0.8314696 0.75 0.8125
0.07465783 0.18023995 0.98078525 0.6875 0.93750006
0.14644662 0.3535534 0.9238795 0.6875 0.875
0.37533027 0.9061274 -0.19509032 0.6875 0.4375
0.35355335 0.85355335 -0.38268346 0.6875 0.375
0.21260753 0.5132799 0.8314696 0.6875 0.8125
0.31818962 0.7681776 -0.55557024 0.6875 0.31249994
0.27059805 0.65328145 0.70710677 0.6875 0.75
0.27059805 0.65328145 -0.70710677 0.6875 0.25
0.31818962 0.7681776 0.55557024 0.6875 0.6875
0.21260753 0.5132799 -0.8314696 0.6875 0.1875
0.35355335 0.85355335 0.38268346 0.6875 0.625
0.14644662 0.3535534 -0.9238795 0.6875 0.12500006
0.37533027 0.9061274 0.19509032 0.6875 0.5625
0.07465783 0.18023995 -0.98078525 0.6875 0.06249994
0.38268343 0.92387944 0 0.6875 0.5
0 0 1 0.703125 1
0 0 -1 0.703125 0
0.4619397 0.6913416 0.55557024 0.65625 0.6875
0.5132799 0.7681777 0.38268346 0.65625 0.625
0.30865827 0.4619397 -0.8314696 0.65625 0.1875
0.21260753 0.31818965 -0.9238795 0.65625 0.12500006
0.5448951 0.8154931 0.19509032 0.65625 0.5625
0.10838637 0.16221166 -0.98078525 0.65625 0.06249994
0.55557024 0.8314695 0 0.65625 0.5
0 0 1 0.671875 1
0.10838637 0.16221166 0.98078525 0.65625 0.93750006
0 0 -1 0.671875 0
0.5448951 0.8154931 -0.19509032 0.65625 0.4375
0.21260753 0.31818965 0.9238795 0.65625 0.875
0.5132799 0.7681777 -0.38268346 0.65625 0.375
0.30865827 0.4619397 0.8314696 0.65625 0.8125
0.4619397 0.6913416 -0.55557024 0.65625 0.31249994
0.39284748 0.5879378 0.70710677 0.65625 0.75
0.39284748 0.5879378 -0.70710677 0.65625 0.25
0.6935199 0.69351983 -0.19509032 0.625 0.4375
0.6532814 0.65328145 -0.38268346 0.625 0.375
0.27059805 0.27059802 0.9238795 0.625 0.875
0.39284745 0.3928474 0.8314696 0.625 0.8125
0.5879377 0.58793765 -0.55557024 0.625 0.31249994
0.5 0.5 0.70710677 0.625 0.75
0.5 0.5 -0.70710677 0.625 0.25
0.5879377 0.58793765 0.55557024 0.625 0.68750006
0.39284745 0.3928474 -0.8314696 0.625 0.1875
0.6532814 0.65328145 0.38268346 0.625 0.625
0.27059805 0.27059802 -0.9238795 0.625 0.125
0.6935199 0.69351983 0.19509032 0.625 0.5625
0.13794968 0.13794966 -0.98078525 0.625 0.06249994
0.70710677 0.7071066 0 0.625 0.5
0 0 1 0.640625 1
0.13794968 0.13794966 0.98078525 0.625 0.93750006
0 0 -1 0.640625 0
0.46193972 0.3086582 -0.8314696 0.59375 0.1875
0.31818965 0.2126075 -0.9238795 0.59375 0.125
0.7681776 0.51328 0.38268346 0.59375 0.625
0.8154931 0.544895 0.19509032 0.59375 0.5625
0.16221166 0.10838635 -0.98078525 0.59375 0.06249994
0.83146954 0.55557 0 0.59375 0.5
0 0 1 0.609375 1
0.16221166 0.10838635 0.98078525 0.59375 0.93750006
0 0 -1 0.609375 0
0.8154931 0.544895 -0.19509032 0.59375 0.4375
0.31818965 0.2126075 0.9238795 0.59375 0.875
0.7681776 0.51328 -0.38268346 0.59375 0.375
0.46193972 0.3086582 0.8314696 0.59375 0.8125
0.69134164 0.46193963 -0.55557024 0.59375 0.31249994
0.5879378 0.39284748 0.70710677 0.59375 0.75
0.5879378 0.39284748 -0.70710677 0.59375 0.25
0.69134164 0.46193963 0.55557024 0.59375 0.6875
0.8535533 0.3535534 -0.38268346 0.5625 0.375
0.7681776 0.3181895 -0.55557024 0.5625 0.31249994
0.5132799 0.21260746 0.8314696 0.5625 0.8125
0.65328145 0.27059805 0.70710677 0.5625 0.75
0.65328145 0.27059805 -0.70710677 0.5625 0.25
0.7681776 0.3181895 0.55557024 0.5625 0.6875
0.5132799 0.21260746 -0.8314696 0.5625 0.1875
0.8535533 0.3535534 0.38268346 0.5625 0.625
0.35355335 0.14644659 -0.9238795 0.5625 0.125
0.90612733 0.37533015 0.19509032 0.5625 0.5625
0.18023992 0.07465781 -0.98078525 0.5625 0.06249994
0.9238794 0.38268322 0 0.5625 0.5
0 0 1 0.578125 1
0.18023992 0.07465781 0.98078525 0.5625 0.93750006
0 0 -1 0.578125 0
0.90612733 0.37533015 -0.19509032 0.5625 0.4375
0.35355335 0.14644659 0.9238795 0.5625 0.875
0.37533024 0.07465781 -0.9238795 0.53125 0.125
0.19134167 0.038060214 -0.98078525 0.53125 0.06249994
0.96193963 0.19134161 0.19509032 0.53125 0.5625
0.9807851 0.19509013 0 0.53125 0.5
0 0 1 0.546875 1
0.19134167 0.038060214 0.98078525 0.53125 0.93750006
0 0 -1 0.546875 0
0.96193963 0.19134161 -0.19509032 0.53125 0.4375
0.37533024 0.07465781 0.9238795 0.53125 0.875
0.90612733 0.18023999 -0.38268346 0.53125 0.375
0.54489505 0.108386315 0.8314696 0.53125 0.8125
0.815493 0.16221157 -0.55557024 0.53125 0.31249994
0.6935199 0.1379497 0.70710677 0.53125 0.75
0.6935199 0.1379497 -0.70710677 0.53125 0.25
0.815493 0.16221157 0.55557024 0.53125 0.68750006
0.54489505 0.108386315 -0.8314696 0.53125 0.1875
0.90612733 0.18023999 0.38268346 0.53125 0.62500006
0.5555701 -5.2154064e-08 0.8314696 0.49999997 0.8125
0.7071067 1.4901161e-08 0.70710677 0.5 0.75
0.8314694 -8.940697e-08 -0.55557024 0.49999997 0.31249994
0.7071067 1.4901161e-08 -0.70710677 0.5 0.25
0.8314694 -8.940697e-08 0.55557024 0.49999997 0.68750006
0.5555701 -5.2154064e-08 -0.8314696 0.49999997 0.1875
0.92387944 4.4703484e-08 0.38268346 0.5 0.625
0.3826834 -2.2351742e-08 -0.9238795 0.5 0.125
0.98078513 -8.940697e-08 0.19509032 0.5 0.5625
0.19509026 -1.1175871e-08 -0.98078525 0.5 0.06249994
0.9999997 -1.6391277e-07 0 0.49999997 0.5
0 0 1 0.515625 1
0.19509026 -1.1175871e-08 0.98078525 0.5 0.93750006
0 0 -1 0.515625 0
0.98078513 -8.940697e-08 -0.19509032 0.5 0.4375
0.3826834 -2.2351742e-08 0.9238795 0.5 0.875
0.92387944 4.4703484e-08 -0.38268346 0.5 0.375
0.9619396 -0.19134177 0.19509032 0.46875 0.5625
0.9807849 -0.19509043 0 0.46874997 0.5
0 0 1 0.484375 1
0.19134165 -0.038060233 0.98078525 0.46875 0.93750006
0 0 -1 0.484375 0
0.19134165 -0.038060233 -0.98078525 0.46875 0.06249994
0.9619396 -0.19134177 -0.19509032 0.46875 0.4375
0.37533024 -0.07465785 0.9238795 0.46875 0.875
0.90612733 -0.1802399 -0.38268346 0.46875 0.375
0.544895 -0.108386405 0.8314696 0.46875 0.8125
0.8154929 -0.16221173 -0.55557024 0.46875 0.31249994
0.69351983 -0.13794966 0.70710677 0.46875 0.75
0.69351983 -0.13794966 -0.70710677 0.46875 0.25
0.8154929 -0.16221173 0.55557024 0.46875 0.68750006
0.544895 -0.108386405 -0.8314696 0.46875 0.1875
0.90612733 -0.1802399 0.38268346 0.46875 0.62500006
0.37533024 -0.07465785 -0.9238795 0.46875 0.125
0.7681775 -0.31818965 -0.55557024 0.43749997 0.31249994
0.6532814 -0.270598 -0.70710677 0.4375 0.25
0.6532814 -0.270598 0.70710677 0.4375 0.75
0.7681775 -0.31818965 0.55557024 0.43749997 0.68750006
0.5132798 -0.21260753 -0.8314696 0.43749997 0.1875
0.8535533 -0.3535533 0.38268346 0.4375 0.62500006
0.35355335 -0.14644662 -0.9238795 0.4375 0.125
0.9061272 -0.3753303 0.19509032 0.4375 0.5625
0.18023989 -0.07465782 -0.98078525 0.4375 0.06249994
0.9238791 -0.38268346 0 0.43749997 0.5
0 0 1 0.453125 1
0.18023989 -0.07465782 0.98078525 0.4375 0.93750006
0 0 -1 0.453125 0
0.9061272 -0.3753303 -0.19509032 0.4375 0.4375
0.35355335 -0.14644662 0.9238795 0.4375 0.875
0.8535533 -0.3535533 -0.38268346 0.4375 0.375
0.5132798 -0.21260753 0.8314696 0.43749997 0.81250006
0 0 1 0.421875 1
0.1622116 -0.10838634 0.98078525 0.40625 0.93750006
0 0 -1 0.421875 0
0.1622116 -0.10838634 -0.98078525 0.40625 0.06249994
0.8314691 -0.5555702 0 0.40624997 0.5
0.8154929 -0.54489505 -0.19509032 0.40625 0.4375
0.3181896 -0.21260752 0.9238795 0.40625 0.875
0.7681776 -0.51327986 -0.38268346 0.40625 0.375
0.46193957 -0.30865824 0.8314696 0.40625 0.81250006
0.69134146 -0.4619397 -0.55557024 0.40625 0.31249994
0.5879377 -0.39284742 0.70710677 0.40625 0.75
0.5879377 -0.39284742 -0.70710677 0.40625 0.25
0.69134146 -0.4619397 0.55557024 0.40625 0.68750006
0.46193957 -0.30865824 -0.8314696 0.40625 0.1875
0.7681776 -0.51327986 0.38268346 0.40625 0.62500006
0.3181896 -0.21260752 -0.9238795 0.40625 0.125
0.8154929 -0.54489505 0.19509032 0.40625 0.5625
0.49999994 -0.49999994 0.70710677 0.375 0.75
0.58793753 -0.58793765 0.55557024 0.375 0.68750006
0.49999994 -0.49999994 -0.70710677 0.375 0.25
0.39284727 -0.39284742 -0.8314696 0.37499997 0.1875
0.6532814 -0.65328133 0.38268346 0.375 0.62500006
0.27059796 -0.27059802 -0.9238795 0.375 0.125
0.6935197 -0.69351983 0.19509032 0.375 0.5625
0.13794962 -0.13794963 -0.98078525 0.375 0.06249994
0.70710623 -0.70710665 0 0.37499994 0.5
0 0 1 0.390625 1
0.13794962 -0.13794963 0.98078525 0.375 0.93750006
0 0 -1 0.390625 0
0.6935197 -0.69351983 -0.19509032 0.375 0.4375
0.27059796 -0.27059802 0.9238795 0.375 0.875
0.6532814 -0.65328133 -0.38268346 0.375 0.375
0.39284727 -0.39284742 0.8314696 0.37499997 0.81250006
0.58793753 -0.58793765 -0.55557024 0.375 0.31249994
0.5555697 -0.83146936 0 0.34374994 0.5
0.5448949 -0.815493 -0.19509032 0.34375 0.4375
0.108386315 -0.1622116 0.98078525 0.34375 0.93750006
0.21260744 -0.31818962 0.9238795 0.34375 0.875
0.5132799 -0.76817757 -0.38268346 0.34375 0.375
0.3086581 -0.46193966 0.8314696 0.34375 0.81250006
0.46193954 -0.6913415 -0.55557024 0.34375 0.31249994
0.39284742 -0.5879377 0.70710677 0.34375 0.75
0.39284742 -0.5879377 -0.70710677 0.34375 0.25
0.46193954 -0.6913415 0.55557024 0.34375 0.68750006
0.3086581 -0.46193966 -0.8314696 0.34375 0.1875
0.5132799 -0.76817757 0.38268346 0.34375 0.62500006
0.21260744 -0.31818962 -0.9238795 0.34375 0.125
0.5448949 -0.815493 0.19509032 0.34375 0.5625
0.108386315 -0.1622116 -0.98078525 0.34375 0.06249994
0 0 1 0.359375 1
0 0 -1 0.359375 0
0.270598 -0.6532814 -0.70710677 0.3125 0.25
0.21260735 -0.5132798 -0.8314696 0.3125 0.1875
0.31818944 -0.7681775 0.55557024 0.3125 0.68750006
0.35355335 -0.8535532 0.38268346 0.3125 0.62500006
0.14644653 -0.35355332 -0.9238795 0.3125 0.125
0.37533003 -0.9061272 0.19509032 0.3125 0.5625
0.07465778 -0.18023986 -0.98078525 0.3125 0.06249994
0.38268295 -0.92387915 0 0.31249997 0.5
0 0 1 0.328125 1
0.07465778 -0.18023986 0.98078525 0.3125 0.93750006
0 0 -1 0.328125 0
0.37533003 -0.9061272 -0.19509032 0.3125 0.4375
0.14644653 -0.35355332 0.9238795 0.3125 0.875
0.35355335 -0.8535532 -0.38268346 0.3125 0.375
0.21260735 -0.5132798 0.8314696 0.3125 0.81250006
0.31818944 -0.7681775 -0.55557024 0.3125 0.31249994
0.270598 -0.6532814 0.70710677 0.3125 0.75
0.19134152 -0.96193945 -0.19509032 0.28125 0.4375
0.18023995 -0.9061272 -0.38268346 0.28125 0.375
0.07465776 -0.37533018 0.9238795 0.28125 0.875
0.10838623 -0.5448949 0.8314696 0.28124997 0.81250006
0.16221152 -0.81549287 -0.55557024 0.28125 0.31249994
0.13794966 -0.69351983 0.70710677 0.28125 0.75
0.13794966 -0.69351983 -0.70710677 0.28125 0.25
0.16221152 -0.81549287 0.55557024 0.28125 0.68750006
0.10838623 -0.5448949 -0.8314696 0.28124997 0.1875
0.18023995 -0.9061272 0.38268346 0.28125 0.62500006
0.07465776 -0.37533018 -0.9238795 0.28125 0.125
0.19134152 -0.96193945 0.19509032 0.28125 0.5625
0.038060203 -0.1913416 -0.98078525 0.28125 0.06249994
0.1950899 -0.9807848 0 0.28124994 0.5
0 0 1 0.296875 1
0.038060203 -0.1913416 0.98078525 0.28125 0.93750006
0 0 -1 0.296875 0
-9.685755e-08 -0.55556995 -0.8314696 0.24999997 0.1875
-5.2154064e-08 -0.38268334 -0.9238795 0.24999997 0.125
2.9802322e-08 -0.92387927 0.38268346 0.25 0.62500006
-1.3411045e-07 -0.98078495 0.19509032 0.24999997 0.5625
-7.450581e-09 -0.19509019 -0.98078525 0.25 0.06249994
-3.2782555e-07 -0.99999934 0 0.24999997 0.5
0 0 1 0.265625 1
-7.450581e-09 -0.19509019 0.98078525 0.25 0.93750006
0 0 -1 0.265625 0
-1.3411045e-07 -0.98078495 -0.19509032 0.24999997 0.4375
-5.2154064e-08 -0.38268334 0.9238795 0.24999997 0.875
2.9802322e-08 -0.92387927 -0.38268346 0.25 0.375
-9.685755e-08 -0.55556995 0.8314696 0.24999997 0.81250006
-1.0430813e-07 -0.8314693 -0.55557024 0.25 0.31249994
-1.4901161e-08 -0.70710665 0.70710677 0.25 0.75
-1.4901161e-08 -0.70710665 -0.70710677 0.25 0.25
-1.0430813e-07 -0.8314693 0.55557024 0.25 0.68750006
-0.074657865 -0.37533018 0.9238795 0.21875 0.875
-0.10838642 -0.5448948 0.8314696 0.21875 0.81250006
-0.18023987 -0.90612715 -0.38268346 0.21875003 0.375
-0.16221172 -0.8154928 -0.55557024 0.21875 0.31249994
-0.13794968 -0.6935198 0.70710677 0.21875 0.75
-0.13794968 -0.6935198 -0.70710677 0.21875 0.25
-0.16221172 -0.8154928 0.55557024 0.21875 0.68750006
-0.10838642 -0.5448948 -0.8314696 0.21875 0.1875
-0.18023987 -0.90612715 0.38268346 0.21875003 0.62500006
-0.074657865 -0.37533018 -0.9238795 0.21875 0.125
-0.19134179 -0.9619394 0.19509032 0.21875 0.5625
-0.038060214 -0.19134158 -0.98078525 0.21875 0.06249994
-0.19509052 -0.98078454 0 0.21874994 0.5
0 0 1 0.234375 1
-0.038060214 -0.19134158 0.98078525 0.21875 0.93750006
0 0 -1 0.234375 0
-0.19134179 -0.9619394 -0.19509032 0.21875 0.4375
-0.35355324 -0.8535531 0.38268346 0.1875 0.62500006
-0.37533027 -0.90612704 0.19509032 0.1875 0.5625
-0.14644662 -0.3535533 -0.9238795 0.1875 0.125
-0.07465778 -0.18023983 -0.98078525 0.1875 0.06249994
-0.3826835 -0.9238787 0 0.18749997 0.5
0 0 1 0.203125 1
-0.07465778 -0.18023983 0.98078525 0.1875 0.93750006
0 0 -1 0.203125 0
-0.37533027 -0.90612704 -0.19509032 0.1875 0.4375
-0.14644662 -0.3535533 0.9238795 0.1875 0.875
-0.35355324 -0.8535531 -0.38268346 0.1875 0.375
-0.2126075 -0.5132796 0.8314696 0.18749997 0.81250006
-0.31818962 -0.7681774 -0.55557024 0.1875 0.31249994
-0.270598 -0.65328133 0.70710677 0.1875 0.75
-0.270598 -0.65328133 -0.70710677 0.1875 0.25
-0.31818962 -0.7681774 0.55557024 0.1875 0.68750006
-0.2126075 -0.5132796 -0.8314696 0.18749997 0.1875
-0.51327974 -0.7681775 -0.38268346 0.15625003 0.375
-0.46193963 -0.69134134 -0.55557024 0.15624997 0.31249994
-0.30865818 -0.4619394 0.8314696 0.15624997 0.8125001
-0.39284742 -0.58793765 0.70710677 0.15625003 0.75
-0.39284742 -0.58793765 -0.70710677 0.15625003 0.25
-0.46193963 -0.69134134 0.55557024 0.15624997 0.68750006
-0.30865818 -0.4619394 -0.8314696 0.15624997 0.18749994
-0.51327974 -0.7681775 0.38268346 0.15625003 0.62500006
-0.2126075 -0.31818953 -0.9238795 0.15624997 0.125
-0.54489505 -0.81549275 0.19509032 0.15624997 0.5625
-0.1083863 -0.16221155 -0.98078525 0.15625003 0.06249994
-0.5555701 -0.83146876 0 0.15624994 0.5
0 0 1 0.171875 1
-0.1083863 -0.16221155 0.98078525 0.15625003 0.93750006
0 0 -1 0.171875 0
-0.54489505 -0.81549275 -0.19509032 0.15624997 0.4375
-0.2126075 -0.31818953 0.9238795 0.15624997 0.875
-0.270598 -0.27059793 -0.9238795 0.125 0.125
-0.13794959 -0.13794957 -0.98078525 0.125 0.06249994
-0.6935198 -0.69351953 0.19509032 0.12499997 0.5625
-0.7071065 -0.70710593 0 0.12499994 0.5
0 0 1 0.14062497 1
-0.13794959 -0.13794957 0.98078525 0.125 0.93750006
0 0 -1 0.14062497 0
-0.6935198 -0.69351953 -0.19509032 0.12499997 0.4375
-0.270598 -0.27059793 0.9238795 0.125 0.875
-0.6532812 -0.6532813 -0.38268346 0.125 0.375
-0.3928473 -0.39284712 0.8314696 0.12499997 0.8125001
-0.5879376 -0.5879374 -0.55557024 0.12499997 0.31249994
-0.4999999 -0.49999988 0.70710677 0.125 0.75
-0.4999999 -0.49999988 -0.70710677 0.125 0.25
-0.5879376 -0.5879374 0.55557024 0.12499997 0.68750006
-0.3928473 -0.39284712 -0.8314696 0.12499997 0.18749994
-0.6532812 -0.6532813 0.38268346 0.125 0.62500006
-0.4619395 -0.30865794 0.8314696 0.09374997 0.8125001
-0.58793765 -0.39284736 0.70710677 0.09375 0.75000006
-0.69134146 -0.46193942 -0.55557024 0.09375 0.31249994
-0.58793765 -0.39284736 -0.70710677 0.09375 0.25
-0.69134146 -0.46193942 0.55557024 0.09375 0.68750006
-0.4619395 -0.30865794 -0.8314696 0.09374997 0.18749994
-0.76817745 -0.5132798 0.38268346 0.09375 0.6250001
-0.31818956 -0.21260741 -0.9238795 0.09375 0.125
-0.8154929 -0.5448947 0.19509032 0.09374997 0.5625
-0.16221155 -0.10838628 -0.98078525 0.09375 0.06249994
-0.8314691 -0.5555694 0 0.09374991 0.5
0 0 1 0.109375 1
-0.16221155 -0.10838628 0.98078525 0.09375 0.93750006
0 0 -1 0.109375 0
-0.8154929 -0.5448947 -0.19509032 0.09374997 0.4375
-0.31818956 -0.21260741 0.9238795 0.09375 0.875
-0.76817745 -0.5132798 -0.38268346 0.09375 0.37499994
-0.90612715 -0.37532988 0.19509032 0.0625 0.5625
-0.92387885 -0.38268268 0 0.06249994 0.5
0 0 1 0.078125 1
-0.18023981 -0.07465775 0.98078525 0.0625 0.93750006
0 0 -1 0.078125 0
-0.18023981 -0.07465775 -0.98078525 0.0625 0.06249994
-0.90612715 -0.37532988 -0.19509032 0.0625 0.4375
-0.35355327 -0.14644651 0.9238795 0.0625 0.875
-0.85355306 -0.35355327 -0.38268346 0.06250003 0.37499994
-0.5132796 -0.21260723 0.8314696 0.0625 0.8125001
-0.7681774 -0.31818932 -0.55557024 0.0625 0.31249988
-0.65328133 -0.27059796 0.70710677 0.06250003 0.75
-0.65328133 -0.27059796 -0.70710677 0.06250003 0.25
-0.7681774 -0.31818932 0.55557024 0.0625 0.6875001
-0.5132796 -0.21260723 -0.8314696 0.0625 0.18749994
-0.85355306 -0.35355327 0.38268346 0.06250003 0.6250001
-0.35355327 -0.14644651 -0.9238795 0.0625 0.125
-0.81549275 -0.16221143 -0.55557024 0.03124997 0.31249994
-0.6935198 -0.13794963 -0.70710677 0.03125 0.25
-0.6935198 -0.13794963 0.70710677 0.03125 0.75
-0.81549275 -0.16221143 0.55557024 0.03124997 0.68750006
-0.5448947 -0.10838615 -0.8314696 0.03124997 0.18749994
-0.9061271 -0.18023989 0.38268346 0.03125 0.62500006
-0.37533012 -0.07465775 -0.9238795 0.03124997 0.125
-0.9619394 -0.19134139 0.19509032 0.03124997 0.5625
-0.19134155 -0.03806018 -0.98078525 0.03125 0.06249994
-0.9807844 -0.1950897 0 0.03124994 0.5
0 0 1 0.04687503 1
-0.19134155 -0.03806018 0.98078525 0.03125 0.93750006
0 0 -1 0.04687503 0
-0.9619394 -0.19134139 -0.19509032 0.03124997 0.4375
-0.37533012 -0.07465775 0.9238795 0.03124997 0.87500006
-0.9061271 -0.18023989 -0.38268346 0.03125 0.375
-0.5448947 -0.10838615 0.8314696 0.03124997 0.8125001
0 0 -1 0.015625 0
-0.19509014 1.8626451e-08 -0.98078525 0 0.06249994
-0.99999905 4.4703484e-07 0 0 0.5
-0.98078483 2.682209e-07 -0.19509032 0 0.4375
-0.19509014 1.8626451e-08 0.98078525 0 0.93750006
-0.38268325 5.2154064e-08 0.9238795 0 0.87500006
-0.92387915 1.4901161e-08 -0.38268346 0 0.37499994
-0.55556977 1.4901161e-07 0.8314696 0 0.8125001
-0.8314692 1.6391277e-07 -0.55557024 0 0.31249994
-0.7071066 2.9802322e-08 0.70710677 0 0.75000006
-0.7071066 2.9802322e-08 -0.70710677 0 0.25
-0.8314692 1.6391277e-07 0.55557024 0 0.68750006
-0.55556977 1.4901161e-07 -0.8314696 0 0.18749994
-0.92387915 1.4901161e-08 0.38268346 0 0.6250001
-0.38268325 5.2154064e-08 -0.9238795 0 0.125
-0.98078483 2.682209e-07 0.19509032 0 0.5625
0 0 1 0.015625 1
-0.55556977 1.4901161e-07 -0.8314696 1 0.18749994
-0.6935197 0.13794969 -0.70710677 0.96875 0.25
-0.54489464 0.108386435 -0.8314696 0.96874994 0.18749994
-0.92387915 1.4901161e-08 0.38268346 1 0.6250001
-0.81549263 0.16221176 0.55557024 0.96874994 0.6875001
-0.90612704 0.1802399 0.38268346 0.96875 0.6250001
-0.38268325 5.2154064e-08 -0.9238795 1 0.125
-0.3753301 0.07465785 -0.9238795 0.96874994 0.125
-0.98078483 2.682209e-07 0.19509032 1 0.5625
-0.9619392 0.19134189 0.19509032 0.96874994 0.56250006
-0.19509014 1.8626451e-08 -0.98078525 1 0.06249994
-0.19134153 0.038060218 -0.98078525 0.96875 0.06249994
-0.99999905 4.4703484e-07 0 1 0.5
-0.98078424 0.19509058 0 0.9687499 0.5
-0.19509014 1.8626451e-08 0.98078525 1 0.93750006
0 0 1 0.984375 1
-0.19134153 0.038060218 0.98078525 0.96875 0.93750006
0 0 -1 0.984375 0
-0.98078483 2.682209e-07 -0.19509032 1 0.4375
-0.9619392 0.19134189 -0.19509032 0.96874994 0.4375
-0.38268325 5.2154064e-08 0.9238795 1 0.87500006
-0.3753301 0.07465785 0.9238795 0.96874994 0.87500006
-0.92387915 1.4901161e-08 -0.38268346 1 0.37499994
-0.90612704 0.1802399 -0.38268346 0.96875 0.37499994
-0.55556977 1.4901161e-07 0.8314696 1 0.8125001
-0.54489464 0.108386435 0.8314696 0.96874994 0.8125001
-0.8314692 1.6391277e-07 -0.55557024 1 0.31249994
-0.81549263 0.16221176 -0.55557024 0.96874994 0.31249988
-0.7071066 2.9802322e-08 0.70710677 1 0.75000006
-0.6935197 0.13794969 0.70710677 0.96875 0.75000006
-0.7071066 2.9802322e-08 -0.70710677 1 0.25
-0.8314692 1.6391277e-07 0.55557024 1 0.68750006
-0.18023978 0.07465778 0.98078525 0.9375 0.93750006
-0.3535532 0.14644659 0.9238795 0.9375 0.87500006
-0.90612686 0.37533033 -0.19509032 0.93749994 0.4375
-0.853553 0.35355324 -0.38268346 0.9375 0.37499994
-0.51327944 0.21260749 0.8314696 0.93749994 0.8125001
-0.7681772 0.31818962 -0.55557024 0.93749994 0.31249988
-0.6532813 0.270598 0.70710677 0.9375 0.75000006
-0.6532813 0.270598 -0.70710677 0.9375 0.25
-0.7681772 0.31818962 0.55557024 0.93749994 0.6875001
-0.51327944 0.21260749 -0.8314696 0.93749994 0.18749994
-0.853553 0.35355324 0.38268346 0.9375 0.6250001
-0.3535532 0.14644659 -0.9238795 0.9375 0.125
-0.90612686 0.37533033 0.19509032 0.93749994 0.56250006
-0.18023978 0.07465778 -0.98078525 0.9375 0.06249994
-0.92387843 0.3826835 0 0.9374999 0.5
0 0 1 0.953125 1
0 0 -1 0.953125 0
-0.69134116 0.46193963 0.55557024 0.90625 0.6875001
-0.7681774 0.51327974 0.38268346 0.90625 0.6250001
-0.46193922 0.30865815 -0.8314696 0.90624994 0.18749994
-0.31818944 0.21260746 -0.9238795 0.90625 0.125
-0.8154926 0.54489505 0.19509032 0.90625 0.56250006
-0.16221151 0.10838629 -0.98078525 0.90625 0.06249994
-0.83146846 0.55557007 0 0.90624994 0.5
0 0 1 0.921875 1
-0.16221151 0.10838629 0.98078525 0.90625 0.93750006
0 0 -1 0.921875 0
-0.8154926 0.54489505 -0.19509032 0.90625 0.4375
-0.31818944 0.21260746 0.9238795 0.90625 0.87500006
-0.7681774 0.51327974 -0.38268346 0.90625 0.37499994
-0.46193922 0.30865815 0.8314696 0.90624994 0.8125001
-0.69134116 0.46193963 -0.55557024 0.90625 0.31249988
-0.5879376 0.3928474 0.70710677 0.90625 0.75000006
-0.5879376 0.3928474 -0.70710677 0.90625 0.25
-0.69351935 0.6935197 -0.19509032 0.87499994 0.4375
-0.65328115 0.65328115 -0.38268346 0.875 0.37499994
-0.27059788 0.27059793 0.9238795 0.875 0.87500006
-0.39284694 0.39284724 0.8314696 0.8749999 0.8125001
-0.58793724 0.58793753 -0.55557024 0.87499994 0.31249988
-0.49999982 0.49999988 0.70710677 0.875 0.75000006
-0.49999982 0.49999988 -0.70710677 0.875 0.25
-0.58793724 0.58793753 0.55557024 0.87499994 0.6875001
-0.39284694 0.39284724 -0.8314696 0.8749999 0.18749994
-0.65328115 0.65328115 0.38268346 0.875 0.6250001
-0.27059788 0.27059793 -0.9238795 0.875 0.125
-0.69351935 0.6935197 0.19509032 0.87499994 0.56250006
-0.13794954 0.13794957 -0.98078525 0.875 0.06249994
-0.7071057 0.70710635 0 0.8749999 0.5
0 0 1 0.890625 1
-0.13794954 0.13794957 0.98078525 0.875 0.93750006
0 0 -1 0.890625 0
-0.3086578 0.46193942 -0.8314696 0.84374994 0.18749982
-0.21260737 0.3181895 -0.9238795 0.84375 0.125
-0.5132797 0.7681774 0.38268346 0.84375 0.6250001
-0.5448946 0.8154928 0.19509032 0.84374994 0.56250006
-0.10838625 0.16221152 -0.98078525 0.84375 0.06249994
-0.55556923 0.83146894 0 0.8437499 0.5
0 0 1 0.859375 1
-0.10838625 0.16221152 0.98078525 0.84375 0.93750006
0 0 -1 0.859375 0
-0.5448946 0.8154928 -0.19509032 0.84374994 0.4375
-0.21260737 0.3181895 0.9238795 0.84375 0.87500006
-0.5132797 0.7681774 -0.38268346 0.84375 0.37499994
-0.3086578 0.46193942 0.8314696 0.84374994 0.8125002
-0.46193928 0.69134134 -0.55557024 0.84374994 0.31249988
-0.3928473 0.58793765 0.70710677 0.84375 0.75000006
-0.3928473 0.58793765 -0.70710677 0.84375 0.25
-0.46193928 0.69134134 0.55557024 0.84374994 0.6875001
-0.14644648 0.35355324 0.9238795 0.8125 0.87500006
-0.2126071 0.5132795 0.8314696 0.81249994 0.8125002
-0.35355318 0.853553 -0.38268346 0.8125 0.37499994
-0.3181892 0.7681773 -0.55557024 0.81249994 0.31249988
-0.2705979 0.65328133 0.70710677 0.8125 0.75000006
-0.2705979 0.65328133 -0.70710677 0.8125 0.25
-0.3181892 0.7681773 0.55557024 0.81249994 0.6875001
-0.2126071 0.5132795 -0.8314696 0.81249994 0.18749982
-0.35355318 0.853553 0.38268346 0.8125 0.6250001
-0.14644648 0.35355324 -0.9238795 0.8125 0.125
-0.3753298 0.906127 0.19509032 0.81249994 0.56250006
-0.07465774 0.18023977 -0.98078525 0.8125 0.06249988
-0.38268256 0.9238786 0 0.8124999 0.5
0 0 1 0.828125 1
-0.07465774 0.18023977 0.98078525 0.8125 0.9375001
0 0 -1 0.828125 0
-0.3753298 0.906127 -0.19509032 0.81249994 0.4375
-0.18023981 0.906127 0.38268346 0.78125 0.6250001
-0.19134133 0.9619392 0.19509032 0.78124994 0.56250006
-0.07465773 0.3753301 -0.9238795 0.78124994 0.125
-0.038060177 0.1913415 -0.98078525 0.78125 0.06249988
-0.19508962 0.9807842 0 0.7812499 0.5
0 0 1 0.796875 1
-0.038060177 0.1913415 0.98078525 0.78125 0.9375001
0 0 -1 0.796875 0
-0.19134133 0.9619392 -0.19509032 0.78124994 0.4375
-0.07465773 0.3753301 0.9238795 0.78124994 0.87500006
-0.18023981 0.906127 -0.38268346 0.78125 0.37499994
-0.10838604 0.5448945 0.8314696 0.78124994 0.8125002
-0.16221133 0.8154926 -0.55557024 0.78124994 0.31249988
-0.13794957 0.6935198 0.70710677 0.78125 0.75
-0.13794957 0.6935198 -0.70710677 0.78125 0.25
-0.16221133 0.8154926 0.55557024 0.78124994 0.6875001
-0.10838604 0.5448945 -0.8314696 0.78124994 0.18749982
0 0 1 0.765625 1
0 0 -1 0.765625 0
3 0 1 2
3 3 4 5
3 6 2 7
3 8 5 9
3 10 7 11
3 12 9 13
3 14 11 15
3 16 13 17
3 18 15 19
3 20 17 21
3 22 23 24
3 25 18 19
3 26 21 27
3 28 24 29
3 30 27 1
3 31 29 4
3 29 32 33
3 1 34 35
3 4 33 36
3 2 35 37
3 5 36 38
3 7 37 39
3 9 38 40
3 11 39 41
3 13 40 42
3 15 41 43
3 17 42 44
3 19 43 45
3 21 44 46
3 24 47 32
3 48 19 45
3 27 46 34
3 42 49 50
3 43 51 52
3 44 50 53
3 45 52 54
3 46 53 55
3 32 56 57
3 58 45 54
3 34 55 59
3 33 57 60
3 35 59 61
3 36 60 62
3 37 61 63
3 38 62 64
3 39 63 65
3 40 64 49
3 41 65 51
3 61 66 67
3 62 68 69
3 63 67 70
3 64 69 71
3 65 70 72
3 49 71 73
3 51 72 74
3 50 73 75
3 52 74 76
3 53 75 77
3 54 76 78
3 55 77 79
3 57 80 81
3 82 54 78
3 59 79 66
3 60 81 68
3 76 83 84
3 77 85 86
3 78 84 87
3 79 86 88
3 81 89 90
3 91 78 87
3 66 88 92
3 68 90 93
3 67 92 94
3 69 93 95
3 70 94 96
3 71 95 97
3 72 96 98
3 73 97 99
3 74 98 83
3 75 99 85
3 96 100 101
3 97 102 103
3 98 101 104
3 99 103 105
3 83 104 106
3 85 105 107
3 84 106 108
3 86 107 109
3 87 108 110
3 88 109 111
3 90 112 113
3 114 87 110
3 92 111 115
3 93 113 116
3 94 115 100
3 95 116 102
3 110 117 118
3 111 119 120
3 113 121 122
3 123 110 118
3 115 120 124
3 116 122 125
3 100 124 126
3 102 125 127
3 101 126 128
3 103 127 129
3 104 128 130
3 105 129 131
3 106 130 132
3 107 131 133
3 108 132 117
3 109 133 119
3 129 134 135
3 130 136 137
3 131 135 138
3 132 137 139
3 133 138 140
3 117 139 141
3 119 140 142
3 118 141 143
3 120 142 144
3 122 145 146
3 147 118 143
3 124 144 148
3 125 146 149
3 126 148 150
3 127 149 134
3 128 150 136
3 144 151 152
3 146 153 154
3 155 143 156
3 148 152 157
3 149 154 158
3 150 157 159
3 134 158 160
3 136 159 161
3 135 160 162
3 137 161 163
3 138 162 164
3 139 163 165
3 140 164 166
3 141 165 167
3 142 166 151
3 143 167 156
3 163 168 169
3 164 170 171
3 165 169 172
3 166 171 173
3 167 172 174
3 151 173 175
3 156 174 176
3 152 175 177
3 154 178 179
3 180 156 176
3 157 177 181
3 158 179 182
3 159 181 183
3 160 182 184
3 161 183 168
3 162 184 170
3 179 185 186
3 187 176 188
3 181 189 190
3 182 186 191
3 183 190 192
3 184 191 193
3 168 192 194
3 170 193 195
3 169 194 196
3 171 195 197
3 172 196 198
3 173 197 199
3 174 198 200
3 175 199 201
3 176 200 188
3 177 201 189
3 197 202 203
3 198 204 205
3 199 203 206
3 200 205 207
3 201 206 208
3 188 207 209
3 189 208 210
3 186 211 212
3 213 188 209
3 190 210 214
3 191 212 215
3 192 214 216
3 193 215 217
3 194 216 218
3 195 217 202
3 196 218 204
3 214 219 220
3 215 221 222
3 216 220 223
3 217 222 224
3 218 223 225
3 202 224 226
3 204 225 227
3 203 226 228
3 205 227 229
3 206 228 230
3 207 229 231
3 208 230 232
3 209 231 233
3 210 232 219
3 212 234 221
3 235 209 233
3 229 236 237
3 230 238 239
3 231 237 240
3 232 239 241
3 233 240 242
3 219 241 243
3 221 244 245
3 246 233 242
3 220 243 247
3 222 245 248
3 223 247 249
3 224 248 250
3 225 249 251
3 226 250 252
3 227 251 236
3 228 252 238
3 249 253 254
3 250 255 256
3 251 254 257
3 252 256 258
3 236 257 259
3 238 258 260
3 237 259 261
3 239 260 262
3 240 261 263
3 241 262 264
3 242 263 265
3 243 264 266
3 245 267 268
3 269 242 265
3 247 266 253
3 248 268 255
3 263 270 271
3 264 272 273
3 265 271 274
3 266 273 275
3 268 276 277
3 278 265 274
3 253 275 279
3 255 277 280
3 254 279 281
3 256 280 282
3 257 281 283
3 258 282 284
3 259 283 285
3 260 284 286
3 261 285 270
3 262 286 272
3 282 287 288
3 283 289 290
3 284 288 291
3 285 290 292
3 286 291 293
3 270 292 294
3 272 293 295
3 271 294 296
3 273 295 297
3 274 296 298
3 275 297 299
3 277 300 301
3 302 274 298
3 279 299 303
3 280 301 287
3 281 303 289
3 297 304 305
3 298 306 307
3 299 305 308
3 301 309 310
3 311 298 307
3 303 308 312
3 287 310 313
3 289 312 314
3 288 313 315
3 290 314 316
3 291 315 317
3 292 316 318
3 293 317 319
3 294 318 320
3 295 319 304
3 296 320 306
3 316 321 322
3 317 323 324
3 318 322 325
3 319 324 326
3 320 325 327
3 304 326 328
3 306 327 329
3 305 328 330
3 307 329 331
3 308 330 332
3 310 333 334
3 335 307 331
3 312 332 336
3 313 334 337
3 314 336 321
3 315 337 323
3 331 338 339
3 332 340 341
3 334 342 343
3 344 331 339
3 336 341 345
3 337 343 346
3 321 345 347
3 323 346 348
3 322 347 349
3 324 348 350
3 325 349 351
3 326 350 352
3 327 351 353
3 328 352 354
3 329 353 338
3 330 354 340
3 350 355 356
3 351 357 358
3 352 356 359
3 353 358 360
3 354 359 361
3 338 360 362
3 340 361 363
3 339 362 364
3 341 363 365
3 343 366 367
3 368 339 364
3 345 365 369
3 346 367 370
3 347 369 371
3 348 370 355
3 349 371 357
3 365 372 373
3 367 374 375
3 376 364 377
3 369 373 378
3 370 375 379
3 371 378 380
3 355 379 381
3 357 380 382
3 356 381 383
3 358 382 384
3 359 383 385
3 360 384 386
3 361 385 387
3 362 386 388
3 363 387 372
3 364 388 377
3 384 389 390
3 385 391 392
3 386 390 393
3 387 392 394
3 388 393 395
3 372 394 396
3 377 395 397
3 373 396 398
3 375 399 400
3 401 377 397
3 378 398 402
3 379 400 403
3 380 402 404
3 381 403 405
3 382 404 389
3 383 405 391
3 406 397 407
3 402 408 409
3 403 410 411
3 404 409 412
3 405 411 413
3 389 412 414
3 391 413 415
3 390 414 416
3 392 415 417
3 393 416 418
3 394 417 419
3 395 418 420
3 396 419 421
3 397 420 407
3 398 421 408
3 400 422 410
3 423 424 425
3 426 427 428
3 429 425 430
3 431 428 432
3 433 430 434
3 435 432 436
3 437 438 439
3 440 433 434
3 441 436 442
3 443 439 444
3 445 442 446
3 447 444 448
3 449 446 450
3 451 448 452
3 453 450 424
3 454 452 427
3 444 455 456
3 446 457 458
3 448 456 459
3 450 458 460
3 452 459 461
3 424 460 462
3 427 461 463
3 425 462 464
3 428 463 465
3 430 464 466
3 432 465 467
3 434 466 468
3 436 467 469
3 439 470 455
3 471 434 468
3 442 469 457
3 465 472 473
3 466 474 475
3 467 473 476
3 468 475 477
3 469 476 478
3 455 479 480
3 481 468 477
3 457 478 482
3 456 480 483
3 458 482 484
3 459 483 485
3 460 484 486
3 461 485 487
3 462 486 488
3 463 487 472
3 464 488 474
3 484 489 490
3 485 491 492
3 486 490 493
3 487 492 494
3 488 493 495
3 472 494 496
3 474 495 497
3 473 496 498
3 475 497 499
3 476 498 500
3 477 499 501
3 478 500 502
3 480 503 504
3 505 477 501
3 482 502 489
3 483 504 491
3 499 506 507
3 500 508 509
3 501 507 510
3 502 509 511
3 504 512 513
3 514 501 510
3 489 511 515
3 491 513 516
3 490 515 517
3 492 516 518
3 493 517 519
3 494 518 520
3 495 519 521
3 496 520 522
3 497 521 506
3 498 522 508
3 518 523 524
3 519 525 526
3 520 524 527
3 521 526 528
3 522 527 529
3 506 528 530
3 508 529 531
3 507 530 532
3 509 531 533
3 510 532 534
3 511 533 535
3 513 536 537
3 538 510 534
3 515 535 539
3 516 537 523
3 517 539 525
3 533 540 541
3 534 542 543
3 535 541 544
3 537 545 546
3 547 534 543
3 539 544 548
3 523 546 549
3 525 548 550
3 524 549 551
3 526 550 552
3 527 551 553
3 528 552 554
3 529 553 555
3 530 554 556
3 531 555 540
3 532 556 542
3 552 30 0
3 553 31 3
3 554 0 6
3 555 3 8
3 556 6 10
3 540 8 12
3 542 10 14
3 541 12 16
3 543 14 18
3 544 16 20
3 546 557 22
3 558 543 18
3 548 20 26
3 549 22 28
3 550 26 30
3 551 28 31
3 0 30 1
3 3 31 4
3 6 0 2
3 8 3 5
3 10 6 7
3 12 8 9
3 14 10 11
3 16 12 13
3 18 14 15
3 20 16 17
3 26 20 21
3 28 22 24
3 30 26 27
3 31 28 29
3 29 24 32
3 1 27 34
3 4 29 33
3 2 1 35
3 5 4 36
3 7 2 37
3 9 5 38
3 11 7 39
3 13 9 40
3 15 11 41
3 17 13 42
3 19 15 43
3 21 17 44
3 27 21 46
3 42 40 49
3 43 41 51
3 44 42 50
3 45 43 52
3 46 44 53
3 34 46 55
3 33 32 57
3 35 34 59
3 36 33 60
3 37 35 61
3 38 36 62
3 39 37 63
3 40 38 64
3 41 39 65
3 61 59 66
3 62 60 68
3 63 61 67
3 64 62 69
3 65 63 70
3 49 64 71
3 51 65 72
3 50 49 73
3 52 51 74
3 53 50 75
3 54 52 76
3 55 53 77
3 59 55 79
3 60 57 81
3 76 74 83
3 77 75 85
3 78 76 84
3 79 77 86
3 66 79 88
3 68 81 90
3 67 66 92
3 69 68 93
3 70 67 94
3 71 69 95
3 72 70 96
3 73 71 97
3 74 72 98
3 75 73 99
3 96 94 100
3 97 95 102
3 98 96 101
3 99 97 103
3 83 98 104
3 85 99 105
3 84 83 106
3 86 85 107
3 87 84 108
3 88 86 109
3 92 88 111
3 93 90 113
3 94 92 115
3 95 93 116
3 110 108 117
3 111 109 119
3 115 111 120
3 116 113 122
3 100 115 124
3 102 116 125
3 101 100 126
3 103 102 127
3 104 101 128
3 105 103 129
3 106 104 130
3 107 105 131
3 108 106 132
3 109 107 133
3 129 127 134
3 130 128 136
3 131 129 135
3 132 130 137
3 133 131 138
3 117 132 139
3 119 133 140
3 118 117 141
3 120 119 142
3 124 120 144
3 125 122 146
3 126 124 148
3 127 125 149
3 128 126 150
3 144 142 151
3 148 144 152
3 149 146 154
3 150 148 157
3 134 149 158
3 136 150 159
3 135 134 160
3 137 136 161
3 138 135 162
3 139 137 163
3 140 138 164
3 141 139 165
3 142 140 166
3 143 141 167
3 163 161 168
3 164 162 170
3 165 163 169
3 166 164 171
3 167 165 172
3 151 166 173
3 156 167 174
3 152 151 175
3 157 152 177
3 158 154 179
3 159 157 181
3 160 158 182
3 161 159 183
3 162 160 184
3 181 177 189
3 182 179 186
3 183 181 190
3 184 182 191
3 168 183 192
3 170 184 193
3 169 168 194
3 171 170 195
3 172 169 196
3 173 171 197
3 174 172 198
3 175 173 199
3 176 174 200
3 177 175 201
3 197 195 202
3 198 196 204
3 199 197 203
3 200 198 205
3 201 199 206
3 188 200 207
3 189 201 208
3 190 189 210
3 191 186 212
3 192 190 214
3 193 191 215
3 194 192 216
3 195 193 217
3 196 194 218
3 214 210 219
3 215 212 221
3 216 214 220
3 217 215 222
3 218 216 223
3 202 217 224
3 204 218 225
3 203 202 226
3 205 204 227
3 206 203 228
3 207 205 229
3 208 206 230
3 209 207 231
3 210 208 232
3 229 227 236
3 230 228 238
3 231 229 237
3 232 230 239
3 233 231 240
3 219 232 241
3 220 219 243
3 222 221 245
3 223 220 247
3 224 222 248
3 225 223 249
3 226 224 250
3 227 225 251
3 228 226 252
3 249 247 253
3 250 248 255
3 251 249 254
3 252 250 256
3 236 251 257
3 238 252 258
3 237 236 259
3 239 238 260
3 240 237 261
3 241 239 262
3 242 240 263
3 243 241 264
3 247 243 266
3 248 245 268
3 263 261 270
3 264 262 272
3 265 263 271
3 266 264 273
3 253 266 275
3 255 268 277
3 254 253 279
3 256 255 280
3 257 254 281
3 258 256 282
3 259 257 283
3 260 258 284
3 261 259 285
3 262 260 286
3 282 280 287
3 283 281 289
3 284 282 288
3 285 283 290
3 286 284 291
3 270 285 292
3 272 286 293
3 271 270 294
3 273 272 295
3 274 271 296
3 275 273 297
3 279 275 299
3 280 277 301
3 281 279 303
3 297 295 304
3 298 296 306
3 299 297 305
3 303 299 308
3 287 301 310
3 289 303 312
3 288 287 313
3 290 289 314
3 291 288 315
3 292 290 316
3 293 291 317
3 294 292 318
3 295 293 319
3 296 294 320
3 316 314 321
3 317 315 323
3 318 316 322
3 319 317 324
3 320 318 325
3 304 319 326
3 306 320 327
3 305 304 328
3 307 306 329
3 308 305 330
3 312 308 332
3 313 310 334
3 314 312 336
3 315 313 337
3 331 329 338
3 332 330 340
3 336 332 341
3 337 334 343
3 321 336 345
3 323 337 346
3 322 321 347
3 324 323 348
3 325 322 349
3 326 324 350
3 327 325 351
3 328 326 352
3 329 327 353
3 330 328 354
3 350 348 355
3 351 349 357
3 352 350 356
3 353 351 358
3 354 352 359
3 338 353 360
3 340 354 361
3 339 338 362
3 341 340 363
3 345 341 365
3 346 343 367
3 347 345 369
3 348 346 370
3 349 347 371
3 365 363 372
3 369 365 373
3 370 367 375
3 371 369 378
3 355 370 379
3 357 371 380
3 356 355 381
3 358 357 382
3 359 356 383
3 360 358 384
3 361 359 385
3 362 360 386
3 363 361 387
3 364 362 388
3 384 382 389
3 385 383 391
3 386 384 390
3 387 385 392
3 388 386 393
3 372 387 394
3 377 388 395
3 373 372 396
3 378 373 398
3 379 375 400
3 380 378 402
3 381 379 403
3 382 380 404
3 383 381 405
3 402 398 408
3 403 400 410
3 404 402 409
3 405 403 411
3 389 404 412
3 391 405 413
3 390 389 414
3 392 391 415
3 393 390 416
3 394 392 417
3 395 393 418
3 396 394 419
3 397 395 420
3 398 396 421
3 423 453 424
3 426 454 427
3 429 423 425
3 431 426 428
3 433 429 430
3 435 431 432
3 441 435 436
3 443 437 439
3 445 441 442
3 447 443 444
3 449 445 446
3 451 447 448
3 453 449 450
3 454 451 452
3 444 439 455
3 446 442 457
3 448 444 456
3 450 446 458
3 452 448 459
3 424 450 460
3 427 452 461
3 425 424 462
3 428 427 463
3 430 425 464
3 432 428 465
3 434 430 466
3 436 432 467
3 442 436 469
3 465 463 472
3 466 464 474
3 467 465 473
3 468 466 475
3 469 467 476
3 457 469 478
3 456 455 480
3 458 457 482
3 459 456 483
3 460 458 484
3 461 459 485
3 462 460 486
3 463 461 487
3 464 462 488
3 484 482 489
3 485 483 491
3 486 484 490
3 487 485 492
3 488 486 493
3 472 487 494
3 474 488 495
3 473 472 496
3 475 474 497
3 476 473 498
3 477 475 499
3 478 476 500
3 482 478 502
3 483 480 504
3 499 497 506
3 500 498 508
3 501 499 507
3 502 500 509
3 489 502 511
3 491 504 513
3 490 489 515
3 492 491 516
3 493 490 517
3 494 492 518
3 495 493 519
3 496 494 520
3 497 495 521
3 498 496 522
3 518 516 523
3 519 517 525
3 520 518 524
3 521 519 526
3 522 520 527
3 506 521 528
3 508 522 529
3 507 506 530
3 509 508 531
3 510 507 532
3 511 509 533
3 515 511 535
3 516 513 537
3 517 515 539
3 533 531 540
3 534 532 542
3 535 533 541
3 539 535 544
3 523 537 546
3 525 539 548
3 524 523 549
3 526 525 550
3 527 524 551
3 528 526 552
3 529 527 553
3 530 528 554
3 531 529 555
3 532 530 556
3 552 550 30
3 553 551 31
3 554 552 0
3 555 553 3
3 556 554 6
3 540 555 8
3 542 556 10
3 541 540 12
3 543 542 14
3 544 541 16
3 548 544 20
3 549 546 22
3 550 548 26
3 551 549 28
