ply
format ascii 1.0
comment Created in Blender version 4.2.1 LTS
element vertex 9
property float x
property float y
property float z
property float s
property float t
element face 5
property list uchar uint vertex_indices
end_header
0.49999997 -0.5 0.49999997 0.25 0.49
0 0 0 0.25 0.25
-0.49999997 -0.5 0.49999997 0.49 0.25
-0.49999997 -0.5 -0.49999997 0.25 0.010000005
0.49999997 -0.5 0.49999997 0.75 0.49
-0.49999997 -0.5 0.49999997 0.99 0.25
-0.49999997 -0.5 -0.49999997 0.75 0.010000005
0.49999997 -0.5 -0.49999997 0.51 0.25
0.49999997 -0.5 -0.49999997 0.010000005 0.25
3 0 1 2
3 2 1 3
4 4 5 6 7
3 3 1 8
3 8 1 0
